<?xml version="1.0" encoding="UTF-8"?>
<svg xmlns="http://www.w3.org/2000/svg" version="1.1" viewBox="0 0 595.28 595.28">
  <!-- Generator: Adobe Illustrator 29.1.0, SVG Export Plug-In . SVG Version: 2.1.0 Build 142)  -->
  <defs>
    <style>
      .st0, .st1 {
        fill: #fff;
      }

      .st2, .st3, .st4 {
        fill: none;
      }

      .st2, .st4, .st1 {
        stroke: #231815;
        stroke-linecap: round;
        stroke-miterlimit: 10;
      }

      .st2, .st1 {
        stroke-width: 7px;
      }

      .st4 {
        stroke-width: 10px;
      }

      .st5 {
        fill: #231815;
      }

      .st6 {
        display: none;
      }
    </style>
  </defs>
  <g id="_圖層_1" data-name="圖層_1" class="st6">
    <g>
      <path d="M323.34-86.02c22.55-7.66,46.24,8.57,44.31,33.15,15,4.2,30.05,7.58,42.47,17.53,29.52,23.62,22.56,58.42-16.91,59.91,6.21,6.41,8.62,13.71,10.23,22.27,23.96,4.52,34.6,29.27,28.9,51.55,12.87,9.62,19.89,23.04,20.9,39.14.39,6.18-1.77,14.26-1.12,19.1.29,2.15,2.28.5,2.03,3.74-.79,10.21-4.62,23.44-7.93,33.22-12.4,36.69-39.5,66.4-70.85,88.15-.88,15.91,2.34,32.98-6.16,47.33l51.47,1.04c9.72,3.9,4.54,14.73-3.93,15.02-73.2.73-146.03-.92-219.09-.09-9.07.1-18.49,1.78-28,1.09-11.88-.86-16.35-7.08-6.75-15.84,4.47-.91,55.37,1.05,55.3-1.72-11.27-14.16-6.13-31.07-7.5-47.5-41.03-26.91-72.84-71.06-75.58-121.38l4.03-2.17c-9.47-21.24-2.84-45.77,15.93-59.09-6.45-17.01.79-42.18,18.42-49.53,3.41-1.42,6.77-1.38,9.79-3.21,1.42-7.24,3.48-14.82,8.89-20.11-14.25-1.3-33.53-4.75-35.91-22.08-4.49-32.75,33.57-49.98,59.93-55.9,1.57-4.18.9-8.18,2.26-12.74,5.27-17.57,26.09-26.26,43.03-20.71,13.56-22.16,48.56-23.16,61.83-.16ZM314.24-66.96c-2.1-8-5.08-15.06-13.32-18.2-8.95-3.41-22.15-.36-26.93,8.51-2.71,5.04-.09,9.65-7.21,8.67-4.21-.58-8.61-3.93-14.09-4.04-16.32-.32-23.02,11.36-17.5,26.06-26.83,6.87-13.42,44.25,12.71,30.22,10.74-5.77,8.72-11.72,10.53-21.51.89-4.77,10.49-4.53,14.06-3.49,2.52.74,7.49,8.69,11.34,10.67,8.34,4.28,18.4,1.41,24.37-5.37,3.76-4.27,1.79-7.75,10.55-6.55,5.63.77,6.94,9.8,9.65,14.35,5.02,8.42,16.82,18.29,27.07,13.47,12.94-6.09,8.46-30.53-6.27-29.78.69-9.93,2.91-20.23-7.94-25.56-9.7-4.76-17.63.14-27.03,2.54ZM206.2-30.93c-24.89,1.57-55.35,42.12-10.45,40.03,9.21-.43,17.62-3.97,26.45-6.05,1.31-1.39-7.46-5.84-9.04-7.45-6.1-6.21-9.13-18.18-6.96-26.54ZM363.21,3.05c14.03,6.87,61.44,11.79,43.4-15.9-5.92-9.09-16.85-15.75-27.41-18.08,1.34,11.51-2.68,21.7-10.61,29.89-1.76,1.81-4.4,2.17-5.39,4.1ZM269.22-18.93c-3.6,9.88-15.61,19.18-26.06,20.45l-.82,1.18c.2,19.93-3.27,40.19,9.89,56.84,9.89,12.51,26.24,21.52,42.46,20.5,41.92-2.63,52.38-41.24,46.06-77.03-10.67-3.55-19.43-13.81-23.56-23.95-11.81,12.6-33.93,14.08-46.51,2.01h-1.47ZM226.2,23.07c-17.95,1.86-33.33,16.74-26.1,35.42l-.86,1.11c-17.08-.91-31.52,7.19-31.08,25.91.2,8.56,4.01,12.11,7.89,18.92-.48,2.5-9.46,5.12-12.19,6.8-4.62,2.83-8.41,7.52-10.42,12.58-5.47,13.73-1.68,21.11,2.87,34.14l277.88.12c-.24-5.88,2.77-10.59,3.05-16.46.71-15.05-10.81-31.16-25.97-33.62,2.17-11.34,8.2-17.66,4.66-30.16-3.91-13.82-17.89-16.76-30.31-18.7-.89-6.64.32-11.53-1.96-18.04-4.04-11.59-14.1-15.99-25.48-18.01.83,4.12.47,10.98-.12,15.37-7.99,59.48-80.76,79.43-117.85,32.09-5.72-7.3-14.03-22.72-14.03-31.97v-15.5ZM433.2,174.07l-278.01.5c9.61,60.21,67.29,107.1,126.53,113.48,21.83,2.35,40.29-1.48,60.47-9.5,46.15-18.35,79.37-56.07,91.01-104.48ZM254.17,300.1c-9.94-.63-18.05-7.07-26.96-10.03,1.19,11.35-2.83,36.59,16.03,31.53,9.79-2.63,10.74-12.82,10.93-21.5ZM357.2,314.57c1-4.63,0-16.4,0-22,0-.4,2.57-1.76-.48-1.49-7.18,5.03-16.28,5.64-24.14,8.84-3.38,1.38-.32,9.87.75,12.51,2.8,6.86,8.21,11.18,15.9,9.16,2.51-.66,7.43-4.52,7.97-7.03ZM313.2,304.06c-13.67,3.03-27.15,1.36-40.95,1.05-.77,8.91-4.43,17.13-10.04,23.94h62c-5.62-7.21-9.98-15.8-11-25Z"/>
      <path d="M356.85,499.71c-2.56,2.4-7.16,4.11-10.66,4.36.39,9.73,3.74,8.51,9.48,13.02,3.73,2.93,6.79,6.71,7.44,11.56,1.01,7.6-1.49,5.54,3.1,12.17,3.05,4.4,5.05,10.23,4.88,15.64-.13,4.29-4.18,8.14,1.15,10.19-4.99,25.11-19.15,46.73-41.55,59.41-1.04,4.76-.34,9.71-.47,14.54-.03,1.28-1.76,4.22.46,4.43.28.03,2.15-1.16,3.96-1.02,6.29.49,13.1.47,19.05,1.08,6.59.68,9.9,1.89,6.04,9.01l-134.59-.46c-1.55-1.09-1.67-6.68.7-7.43l26.37-1.13-1.12-20.9c-7.35-2.05-15.41-10.2-20.4-16.1-13.19-15.59-15.33-29.39-17.48-48.6-.3-2.65,1.19-10.03,2.26-12.65,1.27-3.12,6.27-7.09,6.59-8.46.34-1.49-.9-3.82-.89-5.76.02-6.92-.05-13.32,6.54-17.55,2.31-1.48,5.1-1.39,6.96-3.04,2.14-1.89,2.66-6.22,4.52-8.46-.07-1.83-12.36-1.34-14.53-8.44-3.23-10.56,3.66-19.91,12.67-24.44,3.47-1.75,7.91-2.32,10.85-4.15,8.21-5.1,8.1-15.17,15.97-19.03,6.87-3.37,9.64-.6,14.37-1.42.47-.08,1.2-1.94,2.5-2.69,5.45-3.13,11.3-4.46,17.65-3.29,3.66.68,6.23,5.23,8.27,5.8,2.22.62,4.56-.74,7.29-.45,4.2.44,11.2,4.06,13.19,7.9,1.34,2.59,1.22,6.15,2.83,8.17,3.69,4.61,13.51,6.78,18.88,10.12,9.36,5.83,17.85,18.57,7.73,28.06ZM299.92,450.35c-6.04-6.11-14.88-.04-17.33,6.67-2.43.79-8.05-6.11-14.79-1.85-4.71,2.97-.71,8.79-3.05,10.91-2.1,1.89-5.15-.23-6.81,3.22-2.53,5.23,1.23,12.77,7.52,11.62,5.67-1.04,10.35-12.01,12.42-12.66,7.48-2.35,7.84,3.8,11.33,5.29,9.3,3.95,11.56-6.34,15.45-6.45,5.81-.17,11.46,18.78,19.89,13.86,3.14-1.83,3.39-5.9,2.42-9.18-.85-2.87-5.36-4.21-6.26-5.73-1.29-2.19-.65-7.11-2.83-9.68-5.25-6.18-14.12,2.11-15.69.71-.12-1.89-1.03-5.45-2.29-6.72ZM248.19,476.07c-27.84,10.61-11.93,27.59,9.01,12.49-6.8-.75-7.47-7.08-9.01-12.49ZM350.83,490.71c.62-.96,1.36-1.68,1.14-2.98-.59-4.52-10.29-8.96-14.25-10.68-1.82,4.78-2.31,11.1-8.51,12.03-2.58,3.69,13.63,6.96,17.32,5.8.34-.11,4.05-3.79,4.3-4.18ZM302.89,479.2c-7.55,6.38-12.86,5.41-21.09.94-3.18,5.28-8.71,6.96-13.1,10.92-5.05,20.17,9.35,41.79,31.5,34.5,12.77-4.2,19.52-21.76,14.98-33.96-.79-2.13-10.69-12.65-12.29-12.4ZM259.2,501.07c-9.75,1.75-14.86,7.81-13.04,17.95-8.97.59-17.46,3.84-15.9,14.48.46,3.14,3.39,6.31,3.02,9.92-9.54,3.51-15.1,11.77-7.48,20.55l132.93.12c4.01-7.21,3.73-14.74-3.57-19.48-1.94-1.26-7.39-2.29-7.84-4.17-.39-4.07,4.27-3.14,5.41-5.35,4.55-8.83-8.52-12.73-14.53-14.04,2.76-8.08-2.12-18.74-11.9-17.9-.63,13.21-11.19,29.56-24.27,33.24-22.06,6.2-45.71-11.84-42.83-35.32ZM359.2,575.07l-134.03.5c12.48,56.1,87.26,67.51,121.45,23.41,2.27-2.93,14.89-21.62,12.59-23.91ZM320.19,631.07c-3.49,2.47-9.84,1.71-9.01,7.44.61,4.19,6.26,4.95,8.52,1.56l.49-9ZM271.11,634.15l-9.9-2.08c-3.45,12.97,10.88,14.4,9.9,2.08ZM301.2,636.07h-20l-1,10h18.5c.31,0,1.41,1.38,2.49,1v-11Z"/>
      <path d="M407.87,565.73c-1.48,1.45-5.53,2.27-5.72,2.97-1.26,19.59,1.88,41.63.11,60.92-1.26,13.68-21.52,14.23-23.79-1.31-2.86-19.6,3.06-42.8.77-61.77-.61-5.06-5.04-10.89-2.51-16.46.83-1.82,4.3-2.95,4.51-5.52,0-2.09-7.27-7.8-9.01-10.02-10.11-12.92-10.47-32.5-.85-45.8,24.05-33.27,64.47,12.43,40.8,42.8-3.5,4.49-9.11,7.47-11.84,12.2-.26,2.94,11.79,6.91,10.68,15.56-.2,1.54-2.04,5.32-3.16,6.42ZM389.97,488.24c-16,2.15-19.45,30.49-8.31,40.87,16.35,15.22,35.67-14.56,21.54-33.54-2.77-3.72-8.27-7.99-13.24-7.32ZM399.96,553.31c-2-2-16.54-3.11-15.63,3.03.85,5.71,11.23,5.9,15.22,4.59,2.59-.85,1.89-6.14.41-7.62ZM388.2,568.07v60.5c0,.82,2.49,2,3.48,1.48,1.8-1.07,1.43-2.74,1.57-4.43,1.48-18.4-1.46-37.45-1.01-55.87l-4.04-1.68Z"/>
      <path d="M191.97,480.3c3.13,3.08.22,54.98,1.17,63.15l5.61,2.57,1.45-1.45.96-62.85c2.95-2.67,8.27-2.5,9.01,1.86-.03,20.34.12,40.68.07,61.01-.03,10.8-1.11,21.99-1.09,33.01.03,17.6,3.42,39.67,1.09,57-.71,5.32-5.15,5.72-9.09,2.79l-.96-69.33c-2.72-.45-5.48,1.9-5.97,4.52l-1.05,62.95c-1.19,4.79-5.09,3.98-8.05,1.1l-.92-65.08c-.62-3.27-9.12-4.78-10.04-12.97s3.33-10.96,9.05-15.23l1.25-61.57,1.38-2.79c1.33-.29,5.12.34,6.11,1.3ZM196.9,559.77c6.7-7.85-15.86-12.73-13.52-.41,1.27,4.31,11,3.36,13.52.41Z"/>
      <path d="M500.85,332.42c4,3.84,1.36,9.94-3.07,11.72-1.91.77-11.75,1.97-13.81,1.74-8.72-.98-8.59-13.2-1.82-15.37,4.97-1.59,14.72-1.92,18.7,1.9Z"/>
      <path d="M459.89,343.75c-6.71,6.14-22.56.81-18.16-9.66,4.41-10.49,28.86-.14,18.16,9.66Z"/>
      <path d="M109.94,329.22c11.48-2.06,13.96,12.68,5.32,15.39-14.4,4.51-15.28-13.6-5.32-15.39Z"/>
      <path d="M127.36,334.22c7.42-5.14,6.9,7.57,4.36,7.78l-4.06-1.89-.3-5.89Z"/>
      <path class="st0" d="M226.2,23.07v15.5c0,9.25,8.31,24.67,14.03,31.97,37.1,47.34,109.87,27.38,117.85-32.09.59-4.39.95-11.25.12-15.37,11.38,2.03,21.43,6.42,25.48,18.01,2.27,6.52,1.07,11.41,1.96,18.04,12.41,1.94,26.39,4.88,30.31,18.7,3.54,12.5-2.49,18.82-4.66,30.16,15.16,2.46,26.67,18.58,25.97,33.62-.28,5.88-3.28,10.58-3.05,16.46l-277.88-.12c-4.55-13.03-8.34-20.41-2.87-34.14,2.02-5.06,5.8-9.75,10.42-12.58,2.74-1.68,11.71-4.29,12.19-6.8-3.88-6.81-7.69-10.36-7.89-18.92-.44-18.72,13.99-26.82,31.08-25.91l.86-1.11c-7.23-18.68,8.15-33.56,26.1-35.42Z"/>
      <path class="st0" d="M433.2,174.07c-11.64,48.41-44.86,86.13-91.01,104.48-20.18,8.02-38.64,11.85-60.47,9.5-59.23-6.38-116.91-53.26-126.53-113.48l278.01-.5Z"/>
      <path class="st0" d="M269.22-18.93h1.47c12.58,12.08,34.7,10.6,46.51-2,4.13,10.15,12.88,20.4,23.56,23.95,6.33,35.79-4.14,74.39-46.06,77.03-16.22,1.02-32.58-8-42.46-20.5-13.16-16.65-9.7-36.92-9.89-56.84l.82-1.18c10.45-1.27,22.46-10.57,26.06-20.45ZM270.72,1.54c-2.04-.05-8.12,1.69-9.02,3.51-2.6,5.54,2.38,11.85,8.03,12.09,10.74.45,11.72-15.36.99-15.6ZM315.85,1.37c-12.3.69-8.61,18.24,3.66,14.5,6.07-1.85,4.45-14.95-3.66-14.5Z"/>
      <path class="st0" d="M314.24-66.96c9.4-2.4,17.32-7.3,27.03-2.54,10.85,5.33,8.64,15.63,7.94,25.56,14.72-.75,19.21,23.69,6.27,29.78-10.25,4.82-22.05-5.05-27.07-13.47-2.71-4.55-4.02-13.58-9.65-14.35-8.76-1.2-6.79,2.28-10.55,6.55-5.97,6.78-16.03,9.66-24.37,5.37-3.85-1.98-8.82-9.93-11.34-10.67-3.57-1.05-13.17-1.29-14.06,3.49-1.82,9.79.21,15.75-10.53,21.51-26.13,14.02-39.54-23.35-12.71-30.22-5.52-14.7,1.19-26.38,17.5-26.06,5.48.11,9.88,3.46,14.09,4.04,7.12.98,4.5-3.63,7.21-8.67,4.77-8.88,17.97-11.92,26.93-8.51,8.24,3.14,11.21,10.2,13.32,18.2Z"/>
      <path class="st0" d="M313.2,304.06c1.02,9.19,5.38,17.79,11,25h-62c5.61-6.82,9.28-15.03,10.04-23.94,13.81.31,27.29,1.98,40.95-1.05Z"/>
      <path class="st0" d="M206.2-30.93c-2.17,8.35.86,20.32,6.96,26.54,1.58,1.61,10.34,6.06,9.04,7.45-8.83,2.08-17.25,5.62-26.45,6.05-44.9,2.09-14.43-38.47,10.45-40.03Z"/>
      <path class="st0" d="M363.21,3.05c.99-1.93,3.63-2.28,5.39-4.1,7.93-8.19,11.95-18.38,10.61-29.89,10.56,2.33,21.49,9,27.41,18.08,18.03,27.69-29.38,22.77-43.4,15.9Z"/>
      <path class="st0" d="M254.17,300.1c-.18,8.67-1.13,18.86-10.93,21.5-18.87,5.07-14.84-20.17-16.03-31.53,8.91,2.96,17.02,9.4,26.96,10.03Z"/>
      <path class="st0" d="M357.2,314.57c-.54,2.51-5.45,6.36-7.97,7.03-7.69,2.02-13.1-2.3-15.9-9.16-1.07-2.64-4.13-11.13-.75-12.51,7.86-3.2,16.96-3.81,24.14-8.84,3.05-.27.48,1.08.48,1.49,0,5.6,1,17.37,0,22Z"/>
      <path class="st0" d="M259.2,501.07c-2.88,23.47,20.77,41.51,42.83,35.32,13.08-3.68,23.64-20.03,24.27-33.24,9.77-.84,14.66,9.82,11.9,17.9,6.01,1.31,19.08,5.21,14.53,14.04-1.14,2.21-5.8,1.29-5.41,5.35.45,1.87,5.9,2.9,7.84,4.17,7.3,4.74,7.58,12.27,3.57,19.48l-132.93-.12c-7.62-8.78-2.06-17.04,7.48-20.55.37-3.61-2.56-6.78-3.02-9.92-1.56-10.64,6.93-13.88,15.9-14.48-1.82-10.14,3.29-16.2,13.04-17.95Z"/>
      <path class="st0" d="M359.2,575.07c2.3,2.29-10.32,20.98-12.59,23.91-34.19,44.1-108.97,32.69-121.45-23.41l134.03-.5Z"/>
      <path class="st0" d="M302.89,479.2c1.6-.25,11.5,10.27,12.29,12.4,4.54,12.2-2.22,29.76-14.98,33.96-22.15,7.29-36.55-14.33-31.5-34.5,4.4-3.96,9.93-5.64,13.1-10.92,8.22,4.47,13.53,5.44,21.09-.94ZM298.37,495.91c3.43,1.62,6.21,3.35,9.36.17,3.83-6.18-11.9-11.64-9.36-.17ZM278.85,490.2c-5.94,2,3.12,13.94,6.86,5.84,2.14-4.64-2.85-7.18-6.86-5.84ZM300.21,509.07c-5.83.53-10.33.6-16-1-1.57,1.68,5.77,11.58,5.94,14.56l3.36.29c3.3-1.07,2.14-4.52,3.23-6.81.97-2.06,4.74-3.1,3.47-7.03Z"/>
      <path class="st0" d="M299.92,450.35c1.26,1.27,2.17,4.83,2.29,6.72,1.57,1.4,10.44-6.89,15.69-.71,2.18,2.57,1.54,7.49,2.83,9.68.9,1.52,5.4,2.86,6.26,5.73.97,3.28.72,7.34-2.42,9.18-8.43,4.92-14.09-14.03-19.89-13.86-3.89.12-6.16,10.41-15.45,6.45-3.49-1.48-3.85-7.63-11.33-5.29-2.07.65-6.75,11.61-12.42,12.66-6.3,1.16-10.05-6.38-7.52-11.62,1.66-3.45,4.72-1.33,6.81-3.22,2.35-2.12-1.65-7.93,3.05-10.91,6.74-4.26,12.35,2.64,14.79,1.85,2.45-6.72,11.29-12.79,17.33-6.67Z"/>
      <path class="st0" d="M248.19,476.07c1.53,5.41,2.21,11.75,9.01,12.49-20.93,15.1-36.85-1.89-9.01-12.49Z"/>
      <path class="st0" d="M350.83,490.71c-.25.39-3.97,4.07-4.3,4.18-3.68,1.16-19.9-2.11-17.32-5.8,6.2-.94,6.69-7.26,8.51-12.03,3.96,1.72,13.66,6.16,14.25,10.68.22,1.3-.52,2.02-1.14,2.98Z"/>
      <path class="st0" d="M301.2,636.07v11c-1.09.38-2.19-1-2.5-1h-18.5l1-10h20Z"/>
      <path class="st0" d="M271.11,634.15c.98,12.32-13.35,10.89-9.9-2.08l9.9,2.08Z"/>
      <path class="st0" d="M320.19,631.07l-.49,9c-2.27,3.39-7.92,2.63-8.52-1.56-.83-5.73,5.52-4.98,9.01-7.44Z"/>
      <path class="st0" d="M389.97,488.24c4.97-.67,10.47,3.6,13.24,7.32,14.12,18.99-5.2,48.76-21.54,33.54-11.15-10.37-7.69-38.72,8.31-40.87Z"/>
      <path class="st0" d="M388.2,568.07l4.04,1.68c-.45,18.42,2.49,37.47,1.01,55.87-.14,1.7.23,3.36-1.57,4.43-1,.52-3.48-.67-3.48-1.48v-60.5Z"/>
      <path class="st0" d="M399.96,553.31c1.48,1.48,2.18,6.77-.41,7.62-3.99,1.31-14.37,1.12-15.22-4.59-.91-6.14,13.63-5.03,15.63-3.03Z"/>
      <path class="st0" d="M196.9,559.77c-2.52,2.95-12.25,3.89-13.52-.41-2.34-12.32,20.22-7.44,13.52.41Z"/>
      <path d="M270.72,1.54c10.72.24,9.75,16.04-.99,15.6-5.65-.24-10.62-6.54-8.03-12.09.9-1.82,6.98-3.56,9.02-3.51Z"/>
      <path d="M315.85,1.37c8.11-.45,9.73,12.65,3.66,14.5-12.27,3.74-15.96-13.81-3.66-14.5Z"/>
      <path d="M300.21,509.07c1.27,3.93-2.49,4.97-3.47,7.03-1.08,2.29.07,5.74-3.23,6.81l-3.36-.29c-.17-2.98-7.51-12.88-5.94-14.56,5.67,1.6,10.16,1.53,16,1Z"/>
      <path d="M298.37,495.91c-2.53-11.47,13.19-6.02,9.36.17-3.15,3.19-5.94,1.45-9.36-.17Z"/>
      <path d="M278.85,490.2c4.01-1.35,9,1.2,6.86,5.84-3.74,8.11-12.8-3.84-6.86-5.84Z"/>
    </g>
    <g id="_圖層_5" data-name="圖層_5">
      <path d="M879.75-72.09l-3.18,17.05c6.95,5.55,14.43,8.23,15.81,18.27,1.74,12.59-2.68,21.24-12.93,28.12l-.09,136.68c-2.93,24.4-43.1,23.59-45.88-3.9-2.83-27.97,3.73-60.46.95-89.03,2.02-11.83.71-24.01,1-36,.09-3.93,1.69-7.61,1.08-12.01-.72-5.15-5.98-7.34-7.35-12.64-1.58-6.06-1.08-14.37,1.59-20.05,1.57-3.34,5.53-6.15,6.27-7.81.37-.84-2.57-17.17-3.04-17.96-.81-1.38-11.56-9.13-14.47-12.53-29.32-34.31-17.13-102.53,31.73-109.21,63.45-8.68,79.67,94.67,28.53,121.02ZM853.22-176.1c-39.26,5.68-44.3,75.31-8.43,89.91,47.49,19.33,67.22-68.39,23.34-87.34-5.66-2.45-8.48-3.5-14.91-2.57ZM863.47-58.36c.06-2.8.61-5.82-2.01-7.55l-10,.54.97,7.58,11.04-.57ZM857.19-43.13c-11.73,2.42-12.08,14.76-2.08,20.62,10.63,6.24,29.46-4.37,18.34-16.34-4.18-4.5-10.38-5.49-16.26-4.28ZM862.32-7.22l-9.84-2.14c.42,31.26-.52,62.37-.97,93.54-.12,8.33-.29,14.44,0,22.92.19,5.7-2.55,24.03,5.41,24.49,11.01.63,6.35-14.99,6.47-20.44.67-32.76,1.68-66.28.05-98.96-.17-3.31.85-18.21-1.1-19.4Z"/>
      <path class="st0" d="M853.22-176.1c6.43-.93,9.25.12,14.91,2.57,43.88,18.96,24.15,106.67-23.34,87.34-35.87-14.6-30.83-84.23,8.43-89.91Z"/>
      <path class="st0" d="M862.32-7.22c1.95,1.19.94,16.09,1.1,19.4,1.64,32.68.63,66.2-.05,98.96-.11,5.45,4.54,21.07-6.47,20.44-7.96-.45-5.21-18.79-5.41-24.49-.29-8.48-.12-14.59,0-22.92.45-31.18,1.39-62.29.97-93.54l9.84,2.14Z"/>
      <path class="st0" d="M857.19-43.13c5.89-1.21,12.08-.23,16.26,4.28,11.12,11.97-7.71,22.58-18.34,16.34-10-5.86-9.65-18.21,2.08-20.62Z"/>
      <path class="st0" d="M863.47-58.36l-11.04.57-.97-7.58,10-.54c2.62,1.73,2.07,4.75,2.01,7.55Z"/>
    </g>
  </g>
  <g id="_圖層_3" data-name="圖層_3">
    <path class="st2" d="M523.24,294.59v129.43c0,7.2-5.84,13.04-13.04,13.04s-13.03-5.84-13.03-13.04v-129.43c4.03,1.6,8.43,2.48,13.03,2.48s9-.88,13.04-2.48Z"/>
    <g>
      <line class="st4" x1="60.4" y1="138.88" x2="60.4" y2="456.39"/>
      <line class="st4" x1="93.4" y1="138.88" x2="93.4" y2="456.39"/>
    </g>
    <circle class="st1" cx="76.9" cy="297.64" r="35.43"/>
    <circle class="st1" cx="510.2" cy="297.64" r="35.43"/>
    <path class="st2" d="M554.72,198.76c0,9.92-2.55,19.26-7.04,27.38l-21.63,38.73c-.91-.47-1.85-.89-2.81-1.27-4.04-1.6-8.44-2.48-13.04-2.48s-9,.88-13.03,2.48c-.95.38-1.89.79-2.8,1.26l-21.26-38.07-.57-1.01c-4.37-8.04-6.85-17.24-6.85-27.02,0-25.48,16.81-47.04,39.93-54.18,2.98-.93,6.18-.93,9.16,0,23.13,7.14,39.94,28.7,39.94,54.18Z"/>
    <line class="st3" x1="945.53" y1="246.63" x2="945.42" y2="246.83"/>
    <line class="st2" x1="148.74" y1="510.24" x2="446.38" y2="510.24"/>
  </g>
  <g id="_圖層_2" data-name="圖層_2">
    <path class="st2" d="M278.22,190.19c0,3.5-2.83,6.33-6.33,6.33s-6.33-2.83-6.33-6.33,2.84-6.32,6.33-6.32,6.33,2.83,6.33,6.32ZM271.89,183.87c-3.49,0-6.33,2.83-6.33,6.32s2.84,6.33,6.33,6.33,6.33-2.83,6.33-6.33-2.83-6.32-6.33-6.32ZM323.4,183.87c-3.5,0-6.33,2.83-6.33,6.32s2.83,6.33,6.33,6.33,6.32-2.83,6.32-6.33-2.83-6.32-6.32-6.32ZM271.89,183.87c-3.49,0-6.33,2.83-6.33,6.32s2.84,6.33,6.33,6.33,6.33-2.83,6.33-6.33-2.83-6.32-6.33-6.32ZM329.72,190.19c0,3.5-2.83,6.33-6.32,6.33s-6.33-2.83-6.33-6.33,2.83-6.32,6.33-6.32,6.32,2.83,6.32,6.32ZM428.02,278.72c3.95-5.42,6.27-12.09,6.27-19.3,0-14.37-9.23-26.58-22.08-31.04-3.38-1.18-7.01-1.82-10.79-1.82-.71,0-1.41.02-2.11.07.15-1.25.22-2.53.22-3.82,0-13.83-8.54-25.66-20.63-30.52,5.29,1.64,10.92,2.52,16.75,2.52,8.41,0,16.38-1.83,23.55-5.11.25-.11.49-.22.73-.34.74-.36,1.45-.79,2.11-1.28,3.54-2.56,5.84-6.74,5.84-11.45,0-1.22-.16-2.41-.45-3.55-.06-.23-.13-.47-.2-.71-6.13-21.8-24.98-38.28-48.03-40.92,2.94,4.47,4.65,9.81,4.65,15.56,0,15.65-12.69,28.35-28.34,28.35-.71,0-1.41-.03-2.1-.09-.21,0-.41-.02-.62-.05-.04,0-.08-.01-.12-.01-2.92-.28-5.71-1.02-8.29-2.12,2.25,4.49,3.92,9.32,4.91,14.4.9,1.96,1.69,3.99,2.36,6.07,1.8,5.52,2.77,11.41,2.77,17.53,0,3.52-.32,6.96-.94,10.3h0c-1.12,6.11-3.21,11.86-6.12,17.11-1.34,2.43-2.85,4.75-4.53,6.94-10.35,13.58-26.7,22.34-45.1,22.34s-34.82-8.8-45.18-22.44c-1.66-2.18-3.16-4.49-4.49-6.91-2.79-5.04-4.82-10.56-5.96-16.39-.7-3.54-1.06-7.2-1.06-10.95,0-6.09.96-11.95,2.74-17.44.6-1.87,1.29-3.69,2.08-5.46h.01c.97-5.34,2.68-10.41,5.04-15.1-2.58,1.1-5.37,1.84-8.29,2.12-.04,0-.08.01-.12.01-.21.03-.41.05-.62.05h0c-.69.06-1.39.09-2.09.09-15.66,0-28.35-12.7-28.35-28.35,0-5.75,1.71-11.09,4.65-15.56-.63.07-1.26.16-1.89.25-1.29.19-2.56.43-3.82.71-.24.05-.48.1-.72.16-.35.08-.7.16-1.05.25-.67.17-1.33.35-1.98.54-.72.21-1.43.44-2.13.68-.34.11-.67.23-1.01.35-3.34,1.19-6.53,2.69-9.55,4.47-.3.17-.6.35-.9.54-1.19.73-2.36,1.5-3.49,2.32-.28.2-.56.41-.84.62-.28.21-.56.42-.83.63-.28.21-.55.43-.82.65-1.53,1.23-2.99,2.54-4.38,3.93-.38.37-.76.75-1.11,1.14-.32.32-.63.66-.93,1-.35.38-.69.76-1.02,1.15-.08.08-.15.17-.22.26-.37.42-.72.85-1.06,1.28-.13.15-.25.31-.37.47-.32.4-.63.81-.93,1.22-.37.49-.73.99-1.07,1.5-.31.45-.61.9-.9,1.35-.09.12-.17.25-.25.38-.22.34-.43.68-.63,1.03-.19.28-.36.56-.51.84-.21.36-.42.71-.61,1.07-.14.23-.27.46-.39.7-.2.37-.39.74-.58,1.11-.14.26-.27.53-.4.79-.2.41-.4.84-.59,1.26-.09.17-.17.35-.24.53-.27.59-.53,1.2-.77,1.81-.27.64-.52,1.3-.76,1.96-.24.66-.47,1.33-.68,2-.2.62-.39,1.25-.57,1.89-.02.04-.03.09-.04.14-.07.21-.13.43-.19.65-.29,1.14-.44,2.33-.44,3.55,0,4.67,2.26,8.81,5.73,11.39.53.39,1.09.75,1.68,1.07.43.23.88.44,1.33.64,7.16,3.26,15.11,5.08,23.49,5.08,5.83,0,11.45-.88,16.75-2.52-12.1,4.86-20.64,16.69-20.64,30.52,0,1.29.07,2.57.22,3.82-.69-.05-1.39-.07-2.1-.07-3.79,0-7.42.64-10.8,1.82-12.85,4.46-22.07,16.67-22.07,31.04,0,7.21,2.32,13.88,6.27,19.3-14.5,3.42-25.29,16.45-25.29,31.99,0,12.01,6.45,22.52,16.07,28.25h279.19c9.62-5.73,16.06-16.24,16.06-28.25,0-15.54-10.78-28.57-25.28-31.99ZM277.69,217.14c3.97,6.87,11.4,11.49,19.9,11.49,7.49,0,15.93-4.62,19.9-11.49M297.59,228.63v11.46M271.89,183.87c-3.49,0-6.33,2.83-6.33,6.32s2.84,6.33,6.33,6.33,6.33-2.83,6.33-6.33-2.83-6.32-6.33-6.32ZM148.74,338.96c0,40.08,15.85,76.46,41.61,103.23,7.91,8.2,16.74,15.5,26.34,21.71.75.49,1.51.97,2.27,1.44,14.47,9.03,30.61,15.64,47.84,19.26.05.01.11.02.16.03,6.93,1.45,14.05,2.41,21.31,2.87h.01c1.23.07,2.47.13,3.71.17.63.02,1.27.05,1.91.06.49.02.99.03,1.5.03.71.02,1.44.02,2.16.02,1.92,0,3.84-.03,5.75-.11,1.24-.05,2.48-.11,3.72-.2,7.26-.45,14.37-1.42,21.31-2.88.05-.01.09-.02.14-.03,17.24-3.65,33.37-10.27,47.84-19.32.76-.47,1.51-.94,2.26-1.43,9.57-6.22,18.38-13.52,26.27-21.71,25.72-26.75,41.53-63.1,41.53-103.14H148.74ZM323.4,183.87c-3.5,0-6.33,2.83-6.33,6.32s2.83,6.33,6.33,6.33,6.32-2.83,6.32-6.33-2.83-6.32-6.32-6.32ZM271.89,183.87c-3.49,0-6.33,2.83-6.33,6.32s2.84,6.33,6.33,6.33,6.33-2.83,6.33-6.33-2.83-6.32-6.33-6.32ZM323.4,183.87c-3.5,0-6.33,2.83-6.33,6.32s2.83,6.33,6.33,6.33,6.32-2.83,6.32-6.33-2.83-6.32-6.32-6.32ZM323.4,183.87c-3.5,0-6.33,2.83-6.33,6.32s2.83,6.33,6.33,6.33,6.32-2.83,6.32-6.33-2.83-6.32-6.32-6.32ZM354.42,211.09c0,3.52-.32,6.96-.94,10.3h0c-1.12,6.11-3.21,11.86-6.12,17.11-1.34,2.43-2.85,4.75-4.53,6.94-10.35,13.58-26.7,22.34-45.1,22.34s-34.82-8.8-45.18-22.44c-1.66-2.18-3.16-4.49-4.49-6.91-2.79-5.04-4.82-10.56-5.96-16.39-.7-3.54-1.06-7.2-1.06-10.95,0-6.09.96-11.95,2.74-17.44.6-1.87,1.29-3.69,2.08-5.46h.01c.97-5.34,2.68-10.41,5.04-15.1,6.55-2.8,11.83-8,14.73-14.49v-.02c.22-.46.41-.93.59-1.41.66-.97,1.73-1.63,2.97-1.72.09-.01.19-.01.29-.01.62,0,1.21.15,1.73.41.32.4.65.78,1,1.17.31.36.63.71.96,1.05.43.45.88.88,1.33,1.3,3.16,2.96,6.88,5.32,11,6.9h.02c3.79,1.48,7.91,2.27,12.2,2.27s8.41-.79,12.19-2.27h.02c4.12-1.57,7.85-3.94,11.02-6.9.36-.34.72-.69,1.07-1.05.39-.4.77-.81,1.14-1.23.4-.43.77-.88,1.13-1.34.46-.2.97-.31,1.5-.31.1,0,.19,0,.28.01h.01c1.23.09,2.29.74,2.95,1.69.18.5.39.98.61,1.46v.02c2.91,6.48,8.19,11.67,14.73,14.47,2.25,4.49,3.92,9.32,4.91,14.4.9,1.96,1.69,3.99,2.36,6.07,1.8,5.52,2.77,11.41,2.77,17.53ZM278.22,190.19c0-3.49-2.83-6.32-6.33-6.32s-6.33,2.83-6.33,6.32,2.84,6.33,6.33,6.33,6.33-2.83,6.33-6.33ZM329.72,190.19c0-3.49-2.83-6.32-6.32-6.32s-6.33,2.83-6.33,6.32,2.83,6.33,6.33,6.33,6.32-2.83,6.32-6.33ZM376.32,465.24c-14.47,9.05-30.6,15.67-47.84,19.32,3.29,10.35,10.28,19.06,19.41,24.56.17.12.35.23.54.33.92.5,1.99.79,3.12.79,1,0,1.95-.22,2.8-.63.34-.19.67-.38.99-.59.14-.08.28-.16.42-.25,3.67-2.29,6.99-5.11,9.83-8.34h.01c6.91-7.85,11.1-18.13,11.1-29.4,0-1.96-.13-3.9-.38-5.79ZM354.35,509.61c.35-.16.68-.35.99-.59-.32.21-.65.4-.99.59ZM218.96,465.34c-.25,1.86-.37,3.76-.37,5.69,0,11.26,4.19,21.54,11.09,29.38,2.85,3.24,6.17,6.07,9.85,8.36.13.08.25.16.38.23.34.22.69.42,1.05.62.84.4,1.79.62,2.78.62,1.09,0,2.11-.26,3.01-.73.23-.12.44-.25.65-.39,9.12-5.49,16.1-14.19,19.4-24.52-17.23-3.62-33.37-10.23-47.84-19.26ZM239.91,509c.33.24.68.45,1.05.62-.36-.2-.71-.4-1.05-.62ZM379.2,131.45c-2.31-3.52-5.39-6.5-9.01-8.7-2.11-9.65-9.14-17.45-18.32-20.66-.08-.03-.15-.05-.23-.07-2.86-.98-5.92-1.51-9.12-1.51-6.52,0-12.52,2.2-17.31,5.9-3.11-12.29-14.23-21.38-27.48-21.38s-24.45,9.15-27.51,21.49c-4.81-3.77-10.87-6.01-17.45-6.01-3.2,0-6.27.53-9.12,1.51-.08.02-.15.04-.23.07-9.19,3.21-16.22,11.01-18.33,20.66-3.61,2.2-6.7,5.18-9.01,8.7-2.94,4.47-4.65,9.81-4.65,15.56,0,15.65,12.69,28.35,28.35,28.35.7,0,1.4-.03,2.09-.09h0c.21,0,.41-.02.62-.05.04,0,.08-.01.12-.01,2.92-.28,5.71-1.02,8.29-2.12,6.55-2.8,11.83-8,14.73-14.49v-.02c.22-.46.41-.93.59-1.41.66-.97,1.73-1.63,2.97-1.72.09-.01.19-.01.29-.01.62,0,1.21.15,1.73.41.32.4.65.78,1,1.17.31.36.63.71.96,1.05.43.45.88.88,1.33,1.3,3.16,2.96,6.88,5.32,11,6.9h.02c3.79,1.48,7.91,2.27,12.2,2.27s8.41-.79,12.19-2.27h.02c4.12-1.57,7.85-3.94,11.02-6.9.36-.34.72-.69,1.07-1.05.39-.4.77-.81,1.14-1.23.4-.43.77-.88,1.13-1.34.46-.2.97-.31,1.5-.31.1,0,.19,0,.28.01h.01c1.23.09,2.29.74,2.95,1.69.18.5.39.98.61,1.46v.02c2.91,6.48,8.19,11.67,14.73,14.47,2.58,1.1,5.37,1.84,8.29,2.12.04,0,.08.01.12.01.21.03.41.05.62.05.69.06,1.39.09,2.1.09,15.65,0,28.34-12.7,28.34-28.35,0-5.75-1.71-11.09-4.65-15.56ZM242.5,175.22c-.21.03-.41.05-.62.05h0c-.69.06-1.39.09-2.09.09-15.66,0-28.35-12.7-28.35-28.35,0-5.75,1.71-11.09,4.65-15.56-.63.07-1.26.16-1.89.25-1.29.19-2.56.43-3.82.71-.24.05-.48.1-.72.16-.35.08-.7.16-1.05.25-.67.17-1.33.35-1.98.54-.72.21-1.43.44-2.13.68-.34.11-.67.23-1.01.35-3.34,1.19-6.53,2.69-9.55,4.47-.3.17-.6.35-.9.54-1.19.73-2.36,1.5-3.49,2.32-.28.2-.56.41-.84.62-.28.21-.56.42-.83.63-.28.21-.55.43-.82.65-1.53,1.23-2.99,2.54-4.38,3.93-.38.37-.76.75-1.11,1.14-.32.32-.63.66-.93,1-.35.38-.69.76-1.02,1.15-.08.08-.15.17-.22.26-.37.42-.72.85-1.06,1.28-.13.15-.25.31-.37.47-.32.4-.63.81-.93,1.22-.37.49-.73.99-1.07,1.5-.31.45-.61.9-.9,1.35-.09.12-.17.25-.25.38-.22.34-.43.68-.63,1.03-.19.28-.36.56-.51.84-.21.36-.42.71-.61,1.07-.14.23-.27.46-.39.7-.2.37-.39.74-.58,1.11-.14.26-.27.53-.4.79-.2.41-.4.84-.59,1.26-.09.17-.17.35-.24.53-.27.59-.53,1.2-.77,1.81-.27.64-.52,1.3-.76,1.96-.24.66-.47,1.33-.68,2-.2.62-.39,1.25-.57,1.89-.02.04-.03.09-.04.14-.07.21-.13.43-.19.65-.29,1.14-.44,2.33-.44,3.55,0,4.67,2.26,8.81,5.73,11.39,7.96,4.26,17.05,6.67,26.7,6.67,17.07,0,32.38-7.54,42.78-19.48-.04,0-.08.01-.12.01ZM427.43,173.08c-.06-.23-.13-.47-.2-.71-6.13-21.8-24.98-38.28-48.03-40.92,2.94,4.47,4.65,9.81,4.65,15.56,0,15.65-12.69,28.35-28.34,28.35-.71,0-1.41-.03-2.1-.09-.21,0-.41-.02-.62-.05-.04,0-.08-.01-.12-.01,10.4,11.94,25.71,19.48,42.78,19.48,9.61,0,18.66-2.39,26.59-6.61,3.54-2.56,5.84-6.74,5.84-11.45,0-1.22-.16-2.41-.45-3.55Z"/>
    <circle class="st5" cx="271.89" cy="190.2" r="4.58"/>
    <circle class="st5" cx="323.39" cy="190.2" r="4.58"/>
  </g>
</svg>