<?xml version="1.0" encoding="UTF-8"?>
<svg id="_圖層_2" data-name="圖層 2" xmlns="http://www.w3.org/2000/svg" viewBox="0 0 52.1 40.12">
  <defs>
    <style>
      .cls-1 {
        fill: #ef962e;
      }
    </style>
  </defs>
  <g id="_圖層_1-2" data-name="圖層 1">
    <g id="SVGRepo_iconCarrier" data-name="SVGRepo iconCarrier">
      <g id="b193_chinese_bowl" data-name="b193 chinese bowl">
        <path class="cls-1" d="M10.03,18.82l-7.34,2.81c.07.55.17.77.29,1.3l8.24-3.73c-.22-.06-.98-.31-1.19-.37h0Z"/>
        <path class="cls-1" d="M51.4,13.94c0-1.9-2.02-3.61-5.43-4.94l-.84.32c3.54,1.26,5.72,2.88,5.72,4.62,0,3.89-10.83,7.18-23.65,7.18-3.84,0-7.51-.3-10.75-.81l-13.1,4.32c2.77,8.91,12.41,15.49,23.85,15.49,13.59,0,24.65-9.3,24.65-20.73,0-1.34-.15-3.77-.45-5.2,0-.09.01-.17.01-.25h-.01Z"/>
        <path class="cls-1" d="M6.27,17.4c-1.48-.93-2.73-2.38-2.73-3.46,0-3.89,10.83-7.19,23.66-7.19.5,0,.99,0,1.48.02l1.19-.53c-.88-.03-1.77-.04-2.67-.04-13.58,0-24.22,3.4-24.22,7.75,0,.11,0,.17.03.2-.24,1.13-.39,3.62-.44,4.99l3.71-1.73h-.01,0Z"/>
        <polygon class="cls-1" points="46.93 0 0 20.97 48.01 2.59 46.93 0"/>
        <polygon class="cls-1" points="52.1 4.96 51.03 2.37 4.09 23.35 52.1 4.96"/>
      </g>
    </g>
  </g>
</svg>