<?xml version="1.0" encoding="UTF-8"?>
<svg id="_圖層_2" xmlns="http://www.w3.org/2000/svg" version="1.1" viewBox="0 0 28.89 22.89">
  <!-- Generator: Adobe Illustrator 29.8.2, SVG Export Plug-In . SVG Version: 2.1.1 Build 3)  -->
  <defs>
    <style>
      .st0 {
        fill: #fff;
      }

      .st1 {
        opacity: .25;
      }
    </style>
  </defs>
  <g id="_圖層_1-2" class="st1">
    <g id="SVGRepo_iconCarrier">
      <g id="b193_chinese_bowl">
        <path class="st0" d="M6.43,10.83l-3.67,1.4c.03.27.08.38.14.65l4.12-1.86c-.11-.03-.49-.15-.59-.18h0Z"/>
        <path class="st0" d="M27.12,8.39c0-.95-1.01-1.8-2.71-2.47l-.42.16c1.77.63,2.86,1.44,2.86,2.31,0,1.94-5.41,3.59-11.82,3.59-1.92,0-3.75-.15-5.37-.4l-6.55,2.16c1.38,4.45,6.2,7.74,11.92,7.74,6.79,0,12.32-4.65,12.32-10.36,0-.67-.07-1.88-.22-2.6v-.12h0Z"/>
        <path class="st0" d="M4.55,10.12c-.74-.46-1.36-1.19-1.36-1.73,0-1.94,5.41-3.59,11.83-3.59.25,0,.49,0,.74,0l.59-.26c-.44-.01-.88-.02-1.33-.02-6.79,0-12.11,1.7-12.11,3.87,0,.05,0,.08.01.1-.12.56-.19,1.81-.22,2.49l1.85-.86h0Z"/>
        <polygon class="st0" points="24.88 1.42 1.42 11.9 25.42 2.71 24.88 1.42"/>
        <polygon class="st0" points="27.47 3.9 26.93 2.6 3.46 13.09 27.47 3.9"/>
      </g>
    </g>
  </g>
</svg>