<?xml version="1.0" encoding="UTF-8"?>
<svg id="_圖層_1" xmlns="http://www.w3.org/2000/svg" version="1.1" viewBox="0 0 283.46 283.46">
  <!-- Generator: Adobe Illustrator 29.8.2, SVG Export Plug-In . SVG Version: 2.1.1 Build 3)  -->
  <defs>
    <style>
      .st0 {
        fill: none;
      }

      .st1 {
        fill: #231815;
      }

      .st2 {
        fill: #fff;
      }
    </style>
  </defs>
  <circle class="st0" cx="140.1" cy="141.74" r="77.97"/>
  <g>
    <path class="st1" d="M196.27,220.14h-112.76c-.74,0-1.34-.56-1.34-1.28s.6-1.28,1.34-1.28h112.76c.74,0,1.34.56,1.34,1.28s-.6,1.28-1.34,1.28Z"/>
    <g>
      <g>
        <path class="st2" d="M225.39,140.39v47.1c0,2.63-2.21,4.75-4.94,4.75s-4.94-2.13-4.94-4.75v-47.1c1.53.59,3.19.9,4.94.9s3.41-.32,4.94-.9h0Z"/>
        <path class="st1" d="M220.44,193.51c-3.45,0-6.26-2.7-6.26-6.03v-48.98l1.83.7c1.41.54,2.91.8,4.45.8s3.04-.28,4.45-.8l1.83-.7v48.96c0,3.33-2.81,6.03-6.26,6.03h-.03v.02ZM216.84,142.14v45.34c0,1.91,1.61,3.48,3.63,3.48s3.63-1.56,3.63-3.48v-45.34c-2.35.56-4.88.56-7.23,0h-.03Z"/>
      </g>
      <g>
        <path class="st1" d="M50.06,201.09c-1.05,0-1.9-.8-1.9-1.83v-115.53c0-1.01.85-1.83,1.9-1.83s1.9.81,1.9,1.83v115.53c0,1.01-.85,1.83-1.9,1.83Z"/>
        <path class="st1" d="M62.56,201.09c-1.05,0-1.9-.8-1.9-1.83v-115.53c0-1.01.85-1.83,1.9-1.83s1.9.81,1.9,1.83v115.53c0,1.01-.85,1.83-1.9,1.83Z"/>
      </g>
      <g>
        <path class="st2" d="M69.72,141.5c0,7.13-6.03,12.9-13.43,12.9s-13.43-5.78-13.43-12.9,6.03-12.9,13.43-12.9,13.43,5.78,13.43,12.9h0Z"/>
        <path class="st1" d="M56.3,155.67c-8.14,0-14.76-6.36-14.76-14.16s6.63-14.16,14.76-14.16,14.76,6.36,14.76,14.16-6.63,14.16-14.76,14.16ZM56.3,129.89c-6.68,0-12.1,5.21-12.1,11.63s5.43,11.63,12.1,11.63,12.1-5.21,12.1-11.63-5.43-11.63-12.1-11.63Z"/>
      </g>
      <g>
        <path class="st2" d="M207.04,141.5c0,7.13,6.03,12.9,13.43,12.9s13.43-5.78,13.43-12.9-6.03-12.9-13.43-12.9-13.43,5.78-13.43,12.9h0Z"/>
        <path class="st1" d="M220.46,155.67c-8.14,0-14.76-6.36-14.76-14.16s6.63-14.16,14.76-14.16,14.76,6.36,14.76,14.16-6.63,14.16-14.76,14.16ZM220.46,129.89c-6.68,0-12.1,5.21-12.1,11.63s5.43,11.63,12.1,11.63,12.1-5.21,12.1-11.63-5.43-11.63-12.1-11.63h0Z"/>
      </g>
      <g>
        <path class="st2" d="M237.31,105.53c0,3.6-.98,7.01-2.66,9.96l-8.2,14.1c-.34-.16-.7-.32-1.08-.48-1.54-.59-3.21-.9-4.94-.9s-3.41.32-4.94.9c-.36.14-.71.28-1.08.45l-8.06-13.86-.22-.38c-1.65-2.93-2.59-6.29-2.59-9.83,0-9.26,6.38-17.13,15.14-19.71,1.12-.34,2.35-.34,3.48,0,8.76,2.61,15.14,10.45,15.14,19.71h0v.03h.01Z"/>
        <path class="st1" d="M226.99,131.27l-1.15-.56c-.28-.15-.6-.28-.94-.41-1.43-.54-2.93-.8-4.45-.8s-3.04.28-4.45.8c-.38.15-.67.26-.94.41l-1.15.56-8.89-15.29c-1.83-3.21-2.78-6.81-2.78-10.46,0-9.68,6.45-18.08,16.08-20.93,1.39-.41,2.88-.41,4.26,0,9.6,2.85,16.08,11.25,16.08,20.93,0,3.7-.98,7.38-2.84,10.58l-8.84,15.18h-.03.04ZM220.44,126.95c1.88,0,3.7.34,5.43,1h0l7.6-13.08c1.64-2.84,2.5-6.08,2.5-9.34,0-8.55-5.7-15.98-14.2-18.49-.89-.26-1.8-.26-2.69,0-8.5,2.51-14.2,9.96-14.2,18.49,0,3.23.85,6.41,2.44,9.23l.21.36,7.46,12.85h0c1.73-.66,3.56-1,5.44-1h.03v-.03h-.02Z"/>
      </g>
      <g>
        <path class="st2" d="M132.57,102.4c0,1.28-1.08,2.31-2.4,2.31s-2.4-1.04-2.4-2.31,1.08-2.31,2.4-2.31,2.4,1.04,2.4,2.31ZM130.17,100.11c-1.34,0-2.4,1.04-2.4,2.31s1.08,2.31,2.4,2.31,2.4-1.04,2.4-2.31-1.08-2.31-2.4-2.31ZM149.67,100.11c-1.34,0-2.4,1.04-2.4,2.31s1.08,2.31,2.4,2.31,2.4-1.04,2.4-2.31-1.08-2.31-2.4-2.31ZM130.17,100.11c-1.34,0-2.4,1.04-2.4,2.31s1.08,2.31,2.4,2.31,2.4-1.04,2.4-2.31-1.08-2.31-2.4-2.31ZM152.07,102.4c0,1.28-1.08,2.31-2.4,2.31s-2.4-1.04-2.4-2.31,1.08-2.31,2.4-2.31,2.4,1.04,2.4,2.31ZM189.31,134.61c1.5-1.98,2.39-4.41,2.39-7.04,0-5.24-3.49-9.68-8.36-11.29-1.28-.44-2.66-.66-4.09-.66-.26,0-.53,0-.8.02.05-.45.07-.93.07-1.39,0-5.03-3.25-9.34-7.83-11.1,2.01.6,4.15.93,6.34.93,3.19,0,6.21-.68,8.93-1.86.1-.04.19-.07.28-.14.28-.14.54-.29.8-.47,1.35-.94,2.21-2.46,2.21-4.16,0-.45-.05-.89-.16-1.3,0-.07-.05-.16-.07-.26-2.33-7.94-9.48-13.94-18.19-14.89,1.11,1.64,1.76,3.56,1.76,5.66,0,5.7-4.8,10.31-10.75,10.31-.26,0-.53,0-.79-.04h-.28c-1.11-.1-2.16-.38-3.14-.78.85,1.64,1.49,3.4,1.86,5.24.34.71.64,1.45.9,2.21.67,2.01,1.05,4.15,1.05,6.38,0,1.28-.11,2.54-.36,3.75h0c-.42,2.24-1.23,4.31-2.33,6.23-.51.89-1.09,1.73-1.73,2.54-3.93,4.95-10.11,8.13-17.09,8.13s-13.2-3.21-17.13-8.16c-.64-.79-1.2-1.64-1.71-2.51-1.05-1.84-1.83-3.85-2.25-5.96-.26-1.3-.4-2.63-.4-3.98,0-2.21.36-4.35,1.04-6.34.23-.68.49-1.35.79-1.99h0c.38-1.95,1.01-3.79,1.91-5.5-.98.4-2.03.68-3.14.78h-.28c-.26.02-.53.04-.79.04-5.93,0-10.75-4.61-10.75-10.31,0-2.1.66-4.04,1.76-5.66-.24.02-.47.05-.71.1-.49.07-.98.15-1.45.26-.1,0-.19.04-.29.05-.14.04-.26.05-.4.1-.26.05-.51.14-.75.19-.29.07-.55.16-.81.24-.14.04-.26.07-.38.14-1.26.44-2.48.98-3.63,1.64-.11.05-.23.14-.34.19-.45.26-.9.55-1.34.85-.11.07-.21.15-.33.23s-.21.15-.33.23-.21.15-.33.24c-.59.45-1.13.93-1.65,1.43-.15.14-.29.29-.41.41l-.36.36c-.14.14-.26.29-.4.41-.04.04-.05.05-.07.1-.14.15-.29.3-.4.47-.05.05-.1.11-.14.16-.11.15-.24.3-.36.45-.14.19-.29.36-.41.55-.11.16-.23.33-.34.49-.04.04-.05.1-.1.14-.07.14-.16.24-.24.38-.07.1-.14.21-.19.3l-.23.4s-.1.16-.15.26c-.07.14-.15.26-.23.41-.05.1-.1.19-.15.29-.07.15-.15.3-.23.45-.04.05-.05.14-.1.19-.1.21-.21.44-.3.66-.1.23-.21.47-.29.71-.1.24-.16.49-.26.74-.07.23-.15.45-.23.7v.05s-.05.15-.07.24c-.11.41-.16.85-.16,1.3,0,1.71.86,3.21,2.18,4.15.21.15.41.29.64.4.16.07.34.16.51.23,2.73,1.19,5.73,1.86,8.91,1.86,2.21,0,4.34-.33,6.34-.93-4.58,1.76-7.83,6.08-7.83,11.1,0,.47.02.94.07,1.39-.26,0-.53-.02-.79-.02-1.45,0-2.81.23-4.09.66-4.88,1.64-8.36,6.06-8.36,11.29,0,2.63.89,5.05,2.39,7.04-5.5,1.24-9.59,5.99-9.59,11.65,0,4.38,2.44,8.2,6.1,10.28h105.78c3.64-2.09,6.08-5.91,6.08-10.28,0-5.66-4.09-10.39-9.59-11.65h-.04l.11-.06.07-.05ZM130.17,100.11c-1.34,0-2.4,1.04-2.4,2.31s1.08,2.31,2.4,2.31,2.4-1.04,2.4-2.31-1.08-2.31-2.4-2.31ZM83.51,156.54c0,14.59,6,27.83,15.78,37.56,3,2.99,6.34,5.65,9.98,7.9.29.19.59.36.86.53,5.48,3.29,11.59,5.69,18.14,7.01h.05c2.63.53,5.33.89,8.09,1.05h0c.48,0,.94.05,1.41.05h2.13c.74,0,1.46,0,2.18-.04.48,0,.94-.04,1.41-.07,2.76-.16,5.44-.53,8.09-1.05h.05c6.53-1.34,12.64-3.74,18.14-7.04.28-.16.56-.34.86-.53,3.63-2.28,6.96-4.91,9.96-7.9,9.75-9.74,15.74-22.95,15.74-37.53h-112.8v.04h-.05l-.02.02ZM149.67,100.11c-1.34,0-2.4,1.04-2.4,2.31s1.08,2.31,2.4,2.31,2.4-1.04,2.4-2.31-1.08-2.31-2.4-2.31ZM130.17,100.11c-1.34,0-2.4,1.04-2.4,2.31s1.08,2.31,2.4,2.31,2.4-1.04,2.4-2.31-1.08-2.31-2.4-2.31ZM149.67,100.11c-1.34,0-2.4,1.04-2.4,2.31s1.08,2.31,2.4,2.31,2.4-1.04,2.4-2.31-1.08-2.31-2.4-2.31ZM149.67,100.11c-1.34,0-2.4,1.04-2.4,2.31s1.08,2.31,2.4,2.31,2.4-1.04,2.4-2.31-1.08-2.31-2.4-2.31ZM161.44,110.01c0,1.28-.11,2.54-.36,3.75h0c-.42,2.24-1.23,4.31-2.33,6.23-.51.89-1.09,1.73-1.73,2.54-3.93,4.95-10.11,8.13-17.09,8.13s-13.2-3.21-17.13-8.16c-.64-.79-1.2-1.64-1.71-2.51-1.05-1.84-1.83-3.85-2.25-5.96-.26-1.3-.4-2.63-.4-3.98,0-2.21.36-4.35,1.04-6.34.23-.68.49-1.35.79-1.99h0c.38-1.95,1.01-3.79,1.91-5.5,2.48-1.01,4.49-2.91,5.59-5.28h0c.07-.16.15-.34.22-.53.25-.36.66-.6,1.12-.63h.11c.25,0,.45.05.66.15.11.15.25.29.38.44.11.14.25.26.36.38.16.16.34.33.51.47,1.2,1.08,2.61,1.94,4.16,2.51h0c1.45.55,3,.83,4.61.83s3.19-.29,4.61-.83h0c1.56-.56,2.99-1.43,4.19-2.51.14-.14.28-.24.41-.38.15-.15.3-.3.42-.45.15-.15.3-.33.42-.49.16-.07.38-.11.56-.11h.11c.48.04.86.26,1.12.63.07.19.15.36.22.53h0c1.11,2.36,3.1,4.26,5.59,5.28.85,1.64,1.49,3.4,1.86,5.24.34.71.64,1.45.9,2.21.67,2.01,1.05,4.15,1.05,6.38h0v-.02h0l.06-.03ZM132.57,102.4c0-1.28-1.08-2.31-2.4-2.31s-2.4,1.04-2.4,2.31,1.08,2.31,2.4,2.31,2.4-1.04,2.4-2.31ZM152.07,102.4c0-1.28-1.08-2.31-2.4-2.31s-2.4,1.04-2.4,2.31,1.08,2.31,2.4,2.31,2.4-1.04,2.4-2.31ZM169.74,202.49c-5.48,3.3-11.59,5.7-18.14,7.04,1.24,3.78,3.9,6.94,7.35,8.95.05.04.14.07.21.11.36.19.75.28,1.19.28.38,0,.74-.07,1.08-.22.14-.07.26-.14.38-.21.05-.04.11-.05.15-.1,1.39-.83,2.65-1.86,3.74-3.04h0c2.63-2.85,4.2-6.6,4.2-10.69,0-.71-.05-1.43-.15-2.1h0v-.03h-.01ZM161.41,218.64c.14-.05.26-.14.38-.21-.11.07-.25.15-.38.21ZM110.11,202.52c-.1.67-.14,1.38-.14,2.06,0,4.09,1.6,7.84,4.2,10.69,1.09,1.19,2.35,2.21,3.74,3.04.05.04.1.05.15.07.14.07.26.15.4.22.33.15.68.22,1.05.22.41,0,.8-.1,1.15-.26.1-.04.16-.1.25-.15,3.45-2.01,6.1-5.16,7.35-8.93-6.53-1.31-12.64-3.74-18.14-7.01v.04h-.01ZM118.05,218.41c.14.1.26.16.4.22-.14-.07-.26-.15-.4-.22ZM170.82,81.05c-.89-1.28-2.05-2.36-3.41-3.18-.8-3.51-3.48-6.36-6.94-7.53-.04,0-.05,0-.1-.02-1.09-.36-2.25-.55-3.45-.55-2.48,0-4.75.81-6.56,2.14-1.19-4.46-5.4-7.79-10.41-7.79s-9.26,3.34-10.43,7.83c-1.83-1.38-4.13-2.2-6.63-2.2-1.23,0-2.39.19-3.45.55-.04,0-.05,0-.1.02-3.49,1.16-6.15,4.01-6.94,7.53-1.38.81-2.54,1.9-3.41,3.18-1.11,1.64-1.76,3.56-1.76,5.66,0,5.7,4.8,10.31,10.75,10.31.26,0,.53,0,.79-.04h.28c1.11-.1,2.16-.38,3.14-.78,2.48-1.01,4.49-2.91,5.59-5.28h0c.07-.16.15-.34.22-.53.25-.36.66-.6,1.12-.63h.11c.25,0,.45.05.66.15.11.15.25.29.38.44.11.14.25.26.36.38.16.16.34.33.51.47,1.2,1.08,2.61,1.94,4.16,2.51h0c1.45.55,3,.83,4.61.83s3.19-.29,4.61-.83h0c1.56-.56,2.99-1.43,4.19-2.51.14-.14.28-.24.41-.38.15-.15.3-.3.42-.45.15-.15.3-.33.42-.49.16-.07.38-.11.56-.11h.11c.48.04.86.26,1.12.63.07.19.15.36.22.53h0c1.11,2.36,3.1,4.26,5.59,5.28.98.4,2.03.68,3.14.78h.28c.26.02.53.04.79.04,5.93,0,10.75-4.61,10.75-10.31,0-2.1-.66-4.04-1.76-5.66h.06ZM119.04,96.96h-.25c-.26.02-.53.04-.79.04-5.93,0-10.75-4.61-10.75-10.31,0-2.1.66-4.04,1.76-5.66-.24.02-.47.05-.71.1-.49.07-.98.15-1.45.26-.1,0-.19.04-.29.05-.14.04-.26.05-.4.1-.26.05-.51.14-.75.19-.29.07-.55.16-.81.24-.14.04-.26.07-.38.14-1.26.44-2.48.98-3.63,1.64-.11.05-.23.14-.34.19-.45.26-.9.55-1.34.85-.11.07-.21.15-.33.23s-.21.15-.33.23-.21.15-.33.24c-.59.45-1.13.93-1.65,1.43-.15.14-.29.29-.41.41l-.36.36c-.14.14-.26.29-.4.41-.04.04-.05.05-.07.1-.14.15-.29.3-.4.47-.05.05-.1.11-.14.16-.11.15-.24.3-.36.45-.14.19-.29.36-.41.55-.11.16-.23.33-.34.49-.04.04-.05.1-.1.14-.07.14-.16.24-.24.38-.07.1-.14.21-.19.3l-.23.4s-.1.16-.15.26c-.07.14-.15.26-.23.41-.05.1-.1.19-.15.29-.07.15-.15.3-.23.45-.04.05-.05.14-.1.19-.1.21-.21.44-.3.66-.1.23-.21.47-.29.71-.1.24-.16.49-.26.74-.07.23-.15.45-.23.7v.05s-.05.15-.07.24c-.11.41-.16.85-.16,1.3,0,1.71.86,3.21,2.18,4.15,3.03,1.56,6.45,2.43,10.11,2.43,6.48,0,12.26-2.74,16.2-7.09h-.04v.04h0l.1-.08.04-.03ZM189.09,96.17s-.05-.16-.07-.26c-2.33-7.94-9.48-13.94-18.19-14.89,1.11,1.64,1.76,3.56,1.76,5.66,0,5.7-4.8,10.31-10.75,10.31-.26,0-.53,0-.79-.04h-.28c3.94,4.35,9.74,7.09,16.2,7.09,3.64,0,7.08-.86,10.08-2.4,1.35-.94,2.21-2.46,2.21-4.16,0-.45-.05-.89-.16-1.3h0Z"/>
        <path class="st1" d="M160.35,220.14c-.64,0-1.26-.15-1.83-.45-.1-.05-.19-.11-.3-.16-3.41-1.99-6.06-4.99-7.5-8.54-2.35.42-4.76.71-7.19.86-.48.04-.96.05-1.45.07-.7,0-1.43.04-2.24.04h-2.14c-.48,0-.94-.04-1.41-.07h-.05c-2.44-.15-4.84-.42-7.19-.86-1.46,3.55-4.09,6.55-7.5,8.54-.11.07-.23.14-.34.19-.54.28-1.13.41-1.76.41-.56,0-1.13-.11-1.61-.34-.19-.07-.38-.19-.55-.3-.04,0-.05-.04-.1-.05h-.04c-1.5-.93-2.85-2.03-4.04-3.3-2.93-3.19-4.54-7.28-4.54-11.54,0-.49.02-.96.05-1.43-.05-.04-.11-.07-.16-.11-3.7-2.29-7.13-5.01-10.2-8.09-10.41-10.39-16.15-24.04-16.15-38.44v-1.28h1.13c-2.33-2.43-3.7-5.65-3.7-9,0-5.58,3.56-10.45,8.88-12.38-1.09-1.91-1.65-4.08-1.65-6.3,0-5.63,3.71-10.65,9.25-12.49,1.26-.44,2.58-.66,3.93-.71v-.11c0-3.4,1.31-6.55,3.6-8.93h-.79c-3.29,0-6.48-.66-9.45-1.98-.19-.07-.4-.16-.59-.26-.24-.14-.49-.29-.71-.44l-.1-.05c-1.69-1.2-2.7-3.11-2.7-5.14v-.04c0-.55.07-1.09.21-1.61.02-.1.05-.19.07-.26,0-.04.02-.07.04-.11.07-.23.14-.47.23-.7.07-.24.16-.51.29-.78.1-.26.21-.53.33-.78.07-.21.19-.44.3-.66.04-.1.07-.16.11-.24.07-.15.15-.33.23-.47l.04-.07s.1-.16.14-.26c.05-.14.14-.26.21-.4.05-.1.11-.21.16-.3.05-.11.14-.23.19-.34l.04-.05c.07-.11.15-.24.23-.36.07-.14.16-.26.24-.4.04-.04.07-.11.11-.16.11-.16.23-.34.34-.49.14-.19.29-.4.44-.59.11-.15.23-.3.36-.45.05-.07.11-.14.16-.21.14-.15.26-.33.41-.47.04-.04.07-.1.11-.14.14-.15.26-.29.4-.44.11-.11.23-.24.36-.38l.45-.45c.55-.53,1.15-1.04,1.76-1.53.11-.1.23-.16.34-.26.1-.05.19-.15.3-.23.14-.1.24-.16.36-.26.44-.3.89-.6,1.41-.9.11-.07.24-.15.38-.23,1.2-.68,2.5-1.26,3.83-1.73h.07c.11-.07.23-.11.34-.14.26-.1.55-.16.85-.26.26-.07.53-.15.79-.21.14-.04.29-.07.44-.1.07-.02.19-.04.3-.05.51-.11,1.01-.21,1.53-.26.05,0,.11,0,.15-.02.83-1.08,1.84-2.03,3-2.78,1.04-3.66,3.93-6.66,7.68-7.94.04,0,.1-.04.14-.04,1.24-.4,2.51-.6,3.85-.6,2.1,0,4.11.51,5.91,1.49,1.86-4.26,6.21-7.11,11.14-7.11s9.26,2.84,11.13,7.09c1.79-.96,3.78-1.45,5.85-1.45,1.31,0,2.61.21,3.85.6.05,0,.11.04.16.05,3.71,1.26,6.63,4.26,7.64,7.91,1.16.75,2.18,1.69,3,2.78,8.95,1.23,16.26,7.34,18.71,15.74,0,.1.05.19.07.29h0c.14.53.21,1.04.21,1.56v.05h0c0,2.06-1.04,4.01-2.76,5.21-.3.23-.64.41-1,.59-.1.04-.21.1-.32.15-2.96,1.3-6.15,1.98-9.45,1.98h-.79c2.28,2.39,3.59,5.54,3.59,8.93v.11c1.34.05,2.66.3,3.93.71,5.54,1.84,9.26,6.86,9.26,12.49,0,2.24-.56,4.38-1.65,6.3,5.29,1.94,8.85,6.79,8.85,12.38,0,3.38-1.35,6.59-3.7,9h1.08v1.28c0,14.4-5.73,28.04-16.11,38.4-3.08,3.06-6.51,5.78-10.19,8.09-.05.04-.11.07-.16.11.04.49.05.98.05,1.45,0,4.26-1.61,8.35-4.54,11.54l-.04.04c-1.16,1.26-2.5,2.35-4,3.25-.04,0-.07.05-.14.07-.16.11-.34.21-.54.3-.51.22-1.05.36-1.64.36h.07v-.03l-.02.06-.03.02ZM153.37,210.44c1.28,2.88,3.45,5.29,6.26,6.93l.07.05s.04,0,.05.04c.34.16.71.19,1.01.05.1-.05.16-.1.25-.15l.07-.04s.07-.04.1-.05c1.3-.79,2.46-1.73,3.45-2.81l.04-.04c2.48-2.7,3.83-6.18,3.85-9.78-4.75,2.63-9.85,4.56-15.18,5.8h.03,0,0ZM119.06,217.49c.3.14.7.11.98-.04.04,0,.07-.05.14-.07l.05-.04c2.81-1.61,4.99-4.05,6.26-6.9-5.33-1.23-10.41-3.15-15.18-5.78.02,3.6,1.39,7.05,3.86,9.75,1.01,1.09,2.16,2.05,3.44,2.8l.16.1s.19.11.28.15v.04h.01,0ZM136.44,209.31h0c.45,0,.93.05,1.38.05h2.06c.77,0,1.46,0,2.13-.04.45,0,.93-.04,1.38-.07,2.63-.15,5.25-.49,7.8-1.01l.15-.04c6.29-1.28,12.25-3.59,17.7-6.86l.48-.28c.11-.07.25-.15.36-.22,3.53-2.2,6.79-4.8,9.74-7.73,9.6-9.59,15.03-22.11,15.34-35.36h-110.06c.33,13.28,5.76,25.8,15.38,35.4,2.95,2.93,6.23,5.54,9.75,7.71.16.1.33.21.49.3l.36.21s.05.04.07.05c5.29,3.15,11.01,5.4,17.06,6.68.19.04.38.07.56.11h.04c2.58.53,5.21.86,7.88,1.04v.05h0-.06ZM87.42,155.26h105.03c3.18-1.95,5.14-5.39,5.14-9,0-4.99-3.53-9.26-8.55-10.41l-1.95-.42,1.19-1.56c1.39-1.84,2.13-4,2.13-6.29,0-4.54-3-8.61-7.49-10.09-1.16-.4-2.4-.6-3.66-.6h-.71l-1.6.11.19-1.54c.05-.4.07-.81.07-1.24,0-4.39-2.74-8.29-6.98-9.93h0c-3.85-1.16-7.35-3.29-10.11-6.19-.05,0-.14,0-.19-.02.34.94.63,1.91.83,2.89.34.71.64,1.46.89,2.21.74,2.18,1.11,4.45,1.11,6.78,0,1.3-.11,2.61-.36,3.86h0v.11c-.48,2.33-1.3,4.56-2.48,6.6-.54.94-1.16,1.84-1.83,2.69-4.35,5.48-10.98,8.63-18.14,8.63s-13.83-3.15-18.18-8.66c-.66-.85-1.28-1.75-1.8-2.66-1.15-1.98-1.95-4.11-2.4-6.34-.29-1.38-.44-2.8-.44-4.24,0-2.31.38-4.58,1.11-6.74.23-.68.49-1.35.79-1.99.21-1.08.51-2.13.89-3.15-.05,0-.14,0-.19.02-2.76,2.91-6.26,5.03-10.11,6.18h0c-4.24,1.65-7,5.55-7,9.94,0,.44.02.85.07,1.24l.19,1.54-1.61-.11h-.7c-1.26,0-2.5.21-3.66.6-4.46,1.49-7.46,5.55-7.46,10.09,0,2.28.74,4.45,2.13,6.29l1.19,1.56-1.95.42c-5.05,1.15-8.55,5.43-8.55,10.41,0,3.64,1.98,7.05,5.14,9h.02,0ZM119.81,110.01c0,1.28.14,2.54.38,3.74.4,1.98,1.11,3.85,2.13,5.59.47.83,1.01,1.61,1.6,2.36,3.85,4.88,9.71,7.68,16.08,7.68s12.19-2.78,16.04-7.64c.6-.74,1.12-1.54,1.61-2.36,1.04-1.8,1.76-3.74,2.16-5.74v-.1c.25-1.15.36-2.33.36-3.51,0-2.05-.34-4.08-.98-5.99-.25-.71-.53-1.41-.85-2.09l-.07-.14-.04-.15c-.32-1.56-.85-3.08-1.54-4.53-2.51-1.16-4.54-3.1-5.73-5.54,0-.04-.04-.07-.05-.1,0-.02,0-.05-.04-.07l-.11-.26s0-.05-.04-.07c-.04.04-.07.1-.14.14-.14.15-.28.3-.45.47-.15.15-.3.29-.45.41-1.38,1.23-2.91,2.16-4.61,2.78l-.25.07c-1.54.55-3.18.83-4.86.83s-3.33-.29-4.86-.83h0l-.25-.1c-1.71-.64-3.26-1.56-4.6-2.78-.19-.16-.38-.34-.56-.53-.14-.14-.28-.29-.41-.44l-.11-.11h0s-.04.07-.05.11h0s-.04.1-.05.14l-.05.11c-1.19,2.54-3.23,4.54-5.81,5.73-.74,1.5-1.28,3.1-1.6,4.75l-.07.4-.11.11c-.25.53-.45,1.09-.64,1.65-.66,1.91-.98,3.93-.98,5.96h.01v.02h0v.03ZM163.87,98.12c3.64,2.99,8.28,4.65,13.11,4.65,3.26,0,6.51-.78,9.36-2.21,1-.71,1.58-1.84,1.6-3.03v-.07c0-.33-.04-.66-.14-.98,0-.07-.04-.14-.05-.21h0c-1.99-6.81-7.58-11.91-14.58-13.56.49,1.26.74,2.61.74,3.98,0,5.73-4.35,10.5-10.04,11.43h0,0ZM93.49,100.55c2.88,1.46,6.11,2.24,9.4,2.24,4.84,0,9.48-1.68,13.11-4.65-5.7-.93-10.04-5.7-10.04-11.43,0-1.38.24-2.7.74-3.96-.05,0-.1.02-.15.04-.24.05-.47.11-.71.19-.26.07-.51.15-.75.23-.11.04-.21.05-.3.1h-.07c-1.16.44-2.31.94-3.4,1.56-.11.05-.21.11-.3.16-.47.29-.89.55-1.26.81-.1.07-.19.14-.3.21-.11.1-.21.15-.3.23-.11.07-.21.15-.29.23-.55.44-1.08.89-1.56,1.35-.14.14-.26.24-.38.36l-.05.05-.3.3c-.14.15-.26.26-.38.4l-.1.11c-.14.14-.24.29-.36.41l-.04.04s-.05.07-.07.1v.04c-.14.14-.24.26-.34.4-.14.16-.26.34-.38.51s-.23.33-.34.47l-.07.11c-.1.14-.15.23-.23.34l-.05.07s-.1.14-.11.19l-.07.11s-.11.16-.15.26l-.04.05s-.07.11-.1.16v.04c-.1.14-.15.24-.23.38-.05.1-.07.15-.11.21l-.04.07c-.05.14-.14.29-.21.41l-.04.07s-.02.04-.02.05l-.04.07c-.1.19-.19.4-.26.6-.11.24-.19.47-.29.68-.07.23-.16.45-.24.68s-.15.44-.21.66l-.04.14s-.04.1-.04.15c-.07.3-.11.63-.11.96,0,1.23.56,2.33,1.56,3.08h.01l.04-.05h.01ZM160.62,98.22h0ZM160.89,95.68h.26c.22.02.45.04.67.04,5.2,0,9.41-4.05,9.41-9.04,0-1.76-.53-3.49-1.54-4.98h0c-.77-1.13-1.8-2.09-2.99-2.78l-.49-.29-.11-.53c-.7-3.04-3.03-5.55-6.08-6.59h-.1c-.98-.34-1.99-.51-3.03-.51-2.1,0-4.09.66-5.76,1.88l-1.6,1.19-.49-1.88c-1.05-4.01-4.83-6.83-9.14-6.83s-8.1,2.81-9.14,6.85l-.49,1.91-1.61-1.23c-1.68-1.26-3.68-1.91-5.8-1.91-1.05,0-2.06.16-3.03.49h-.1c-3.08,1.08-5.39,3.59-6.08,6.63l-.11.53-.49.29c-1.2.7-2.24,1.68-3,2.78-.96,1.41-1.5,3.04-1.54,4.73v.24c0,4.99,4.23,9.04,9.41,9.04.23,0,.45,0,.68-.02h.33c.93-.11,1.84-.34,2.7-.7.04,0,.1-.04.14-.05,2.05-.89,3.68-2.4,4.65-4.34h0l.14-.29c.05-.11.11-.24.16-.41l.05-.15.1-.14c.49-.7,1.26-1.11,2.1-1.19h.22c.42,0,.86.1,1.26.29l.26.14.19.23c.11.14.21.24.34.38.11.14.22.24.32.34.15.15.3.3.45.44,1.05.94,2.24,1.68,3.55,2.18l.21.07c1.31.49,2.7.74,4.15.74s2.84-.24,4.15-.74l.25-.1c1.3-.51,2.48-1.24,3.53-2.18.11-.11.25-.23.36-.34.14-.14.26-.26.4-.4s.25-.26.38-.44l.21-.26.3-.14c.34-.15.71-.23,1.11-.23h.19c.85.05,1.61.49,2.1,1.16l.1.14.05.15c.05.15.14.3.19.44l.11.26c1,1.98,2.69,3.51,4.79,4.38.85.34,1.73.56,2.63.66h.11v.07h0l-.03.03h.04ZM160.95,95.68h0ZM119.85,71.56h0ZM149.67,105.98c-2.06,0-3.74-1.61-3.74-3.59s1.68-3.59,3.74-3.59,3.71,1.6,3.71,3.59-1.68,3.59-3.71,3.59ZM148.61,102.4c0,.56.49,1.04,1.08,1.04s1.08-.47,1.08-1.04-.49-1.04-1.08-1.04-1.08.47-1.08,1.04ZM130.17,105.98c-2.06,0-3.74-1.61-3.74-3.59s1.68-3.59,3.74-3.59,3.74,1.6,3.74,3.59-1.68,3.59-3.74,3.59ZM129.09,102.4c0,.56.49,1.04,1.08,1.04s1.08-.47,1.08-1.04-.49-1.04-1.08-1.04-1.08.47-1.08,1.04Z"/>
      </g>
      <path d="M148.62,111.12c-.64-.36-1.45-.16-1.83.44-.14.23-.3.45-.49.66-1.43,1.71-3.89,2.91-6.18,2.91-2.46,0-4.75-1.11-6.19-2.91-.16-.21-.34-.44-.48-.66-.38-.6-1.19-.81-1.83-.44-.64.36-.83,1.15-.45,1.75,1.61,2.61,4.46,4.34,7.6,4.73v2.99c0,.71.6,1.28,1.34,1.28s1.34-.56,1.34-1.28v-2.99c3.08-.41,6.06-2.24,7.6-4.71.38-.6.16-1.39-.45-1.75h0v-.02h.02Z"/>
    </g>
  </g>
</svg>