<?xml version="1.0" encoding="UTF-8"?>
<svg id="_圖層_1" data-name="圖層_1" xmlns="http://www.w3.org/2000/svg" xmlns:xlink="http://www.w3.org/1999/xlink" version="1.1" viewBox="0 0 283.46 283.46">
  <!-- Generator: Adobe Illustrator 29.8.1, SVG Export Plug-In . SVG Version: 2.1.1 Build 2)  -->
  <defs>
    <style>
      .st0 {
        fill: none;
      }

      .st1 {
        fill: #ef962e;
      }

      .st2 {
        fill: #231815;
      }

      .st3 {
        clip-path: url(#clippath-1);
      }

      .st4 {
        fill: #fff;
      }

      .st5 {
        opacity: .25;
      }

      .st6 {
        clip-path: url(#clippath);
      }
    </style>
    <clipPath id="clippath">
      <circle class="st0" cx="140.1" cy="141.74" r="77.97"/>
    </clipPath>
    <clipPath id="clippath-1">
      <rect class="st0" x="-130.99" y="21.02" width="541.18" height="240.95"/>
    </clipPath>
  </defs>
  <g class="st6">
    <rect class="st1" x="-139.6" y="-266.25" width="562.9" height="816.11"/>
    <g class="st5">
      <g class="st3">
        <g>
          <g id="SVGRepo_iconCarrier">
            <g id="b193_chinese_bowl">
              <path class="st4" d="M-120.96,39.84l-7.34,2.81c.07.55.17.77.29,1.3l8.24-3.73c-.22-.06-.98-.31-1.19-.37Z"/>
              <path class="st4" d="M-79.59,34.96c0-1.9-2.02-3.61-5.43-4.94l-.84.32c3.54,1.26,5.72,2.88,5.72,4.62,0,3.89-10.83,7.18-23.65,7.18-3.84,0-7.51-.3-10.75-.81l-13.1,4.32c2.77,8.91,12.41,15.49,23.85,15.49,13.59,0,24.65-9.3,24.65-20.73,0-1.34-.15-3.77-.45-5.2,0-.09.01-.17.01-.25Z"/>
              <path class="st4" d="M-124.72,38.42c-1.48-.93-2.73-2.38-2.73-3.46,0-3.89,10.83-7.19,23.66-7.19.5,0,.99,0,1.48.02l1.19-.53c-.88-.03-1.77-.04-2.67-.04-13.58,0-24.22,3.4-24.22,7.75,0,.11,0,.17.03.2-.24,1.13-.39,3.62-.44,4.99l3.71-1.73Z"/>
              <polygon class="st4" points="-84.06 21.02 -130.99 41.99 -82.98 23.61 -84.06 21.02"/>
              <polygon class="st4" points="-78.89 25.98 -79.96 23.39 -126.9 44.37 -78.89 25.98"/>
            </g>
          </g>
          <g id="SVGRepo_iconCarrier1" data-name="SVGRepo_iconCarrier">
            <g id="b193_chinese_bowl1" data-name="b193_chinese_bowl">
              <path class="st4" d="M-60.49,39.84l-7.34,2.81c.07.55.17.77.29,1.3l8.24-3.73c-.22-.06-.98-.31-1.19-.37Z"/>
              <path class="st4" d="M-19.12,34.96c0-1.9-2.02-3.61-5.43-4.94l-.84.32c3.54,1.26,5.72,2.88,5.72,4.62,0,3.89-10.83,7.18-23.65,7.18-3.85,0-7.51-.3-10.75-.81l-13.1,4.32c2.77,8.91,12.41,15.49,23.85,15.49,13.59,0,24.65-9.3,24.65-20.73,0-1.34-.15-3.77-.45-5.2,0-.09.01-.17.01-.25Z"/>
              <path class="st4" d="M-64.25,38.42c-1.48-.93-2.73-2.38-2.73-3.46,0-3.89,10.83-7.19,23.66-7.19.5,0,.99,0,1.48.02l1.19-.53c-.88-.03-1.77-.04-2.67-.04-13.58,0-24.22,3.4-24.22,7.75,0,.11,0,.17.03.2-.24,1.13-.39,3.62-.44,4.99l3.71-1.73Z"/>
              <polygon class="st4" points="-23.59 21.02 -70.52 41.99 -22.52 23.61 -23.59 21.02"/>
              <polygon class="st4" points="-18.42 25.98 -19.5 23.39 -66.43 44.37 -18.42 25.98"/>
            </g>
          </g>
          <g id="SVGRepo_iconCarrier2" data-name="SVGRepo_iconCarrier">
            <g id="b193_chinese_bowl2" data-name="b193_chinese_bowl">
              <path class="st4" d="M-.03,39.84l-7.34,2.81c.07.55.17.77.29,1.3l8.24-3.73c-.22-.06-.98-.31-1.19-.37Z"/>
              <path class="st4" d="M41.35,34.96c0-1.9-2.02-3.61-5.43-4.94l-.84.32c3.54,1.26,5.72,2.88,5.72,4.62,0,3.89-10.83,7.18-23.65,7.18-3.84,0-7.51-.3-10.75-.81l-13.1,4.32c2.77,8.91,12.41,15.49,23.85,15.49,13.59,0,24.65-9.3,24.65-20.73,0-1.34-.15-3.77-.45-5.2,0-.09.01-.17.01-.25Z"/>
              <path class="st4" d="M-3.78,38.42c-1.48-.93-2.73-2.38-2.73-3.46,0-3.89,10.83-7.19,23.66-7.19.5,0,.99,0,1.48.02l1.19-.53c-.88-.03-1.77-.04-2.67-.04-13.58,0-24.22,3.4-24.22,7.75,0,.11,0,.17.03.2-.24,1.13-.39,3.62-.44,4.99l3.71-1.73Z"/>
              <polygon class="st4" points="36.88 21.02 -10.05 41.99 37.95 23.61 36.88 21.02"/>
              <polygon class="st4" points="42.05 25.98 40.97 23.39 -5.96 44.37 42.05 25.98"/>
            </g>
          </g>
          <g id="SVGRepo_iconCarrier3" data-name="SVGRepo_iconCarrier">
            <g id="b193_chinese_bowl3" data-name="b193_chinese_bowl">
              <path class="st4" d="M60.44,39.84l-7.34,2.81c.07.55.17.77.29,1.3l8.24-3.73c-.22-.06-.98-.31-1.19-.37Z"/>
              <path class="st4" d="M101.82,34.96c0-1.9-2.02-3.61-5.43-4.94l-.84.32c3.54,1.26,5.72,2.88,5.72,4.62,0,3.89-10.83,7.18-23.65,7.18-3.84,0-7.51-.3-10.75-.81l-13.1,4.32c2.77,8.91,12.41,15.49,23.85,15.49,13.59,0,24.65-9.3,24.65-20.73,0-1.34-.15-3.77-.45-5.2,0-.09.01-.17.01-.25Z"/>
              <path class="st4" d="M56.68,38.42c-1.48-.93-2.73-2.38-2.73-3.46,0-3.89,10.83-7.19,23.66-7.19.5,0,.99,0,1.48.02l1.19-.53c-.88-.03-1.77-.04-2.67-.04-13.58,0-24.22,3.4-24.22,7.75,0,.11,0,.17.03.2-.24,1.13-.39,3.62-.44,4.99l3.71-1.73Z"/>
              <polygon class="st4" points="97.35 21.02 50.42 41.99 98.42 23.61 97.35 21.02"/>
              <polygon class="st4" points="102.51 25.98 101.44 23.39 54.51 44.37 102.51 25.98"/>
            </g>
          </g>
          <g id="SVGRepo_iconCarrier4" data-name="SVGRepo_iconCarrier">
            <g id="b193_chinese_bowl4" data-name="b193_chinese_bowl">
              <path class="st4" d="M120.91,39.84l-7.34,2.81c.07.55.17.77.29,1.3l8.24-3.73c-.22-.06-.98-.31-1.19-.37Z"/>
              <path class="st4" d="M162.29,34.96c0-1.9-2.02-3.61-5.43-4.94l-.84.32c3.54,1.26,5.71,2.88,5.71,4.62,0,3.89-10.83,7.18-23.65,7.18-3.85,0-7.51-.3-10.75-.81l-13.1,4.32c2.77,8.91,12.41,15.49,23.85,15.49,13.59,0,24.65-9.3,24.65-20.73,0-1.34-.15-3.77-.45-5.2,0-.09.01-.17.01-.25Z"/>
              <path class="st4" d="M117.15,38.42c-1.48-.93-2.73-2.38-2.73-3.46,0-3.89,10.83-7.19,23.66-7.19.5,0,.99,0,1.48.02l1.19-.53c-.88-.03-1.77-.04-2.67-.04-13.58,0-24.22,3.4-24.22,7.75,0,.11,0,.17.03.2-.24,1.13-.39,3.62-.44,4.99l3.71-1.73Z"/>
              <polygon class="st4" points="157.82 21.02 110.88 41.99 158.89 23.61 157.82 21.02"/>
              <polygon class="st4" points="162.98 25.98 161.91 23.39 114.97 44.37 162.98 25.98"/>
            </g>
          </g>
          <g id="SVGRepo_iconCarrier5" data-name="SVGRepo_iconCarrier">
            <g id="b193_chinese_bowl5" data-name="b193_chinese_bowl">
              <path class="st4" d="M181.38,39.84l-7.34,2.81c.07.55.17.77.29,1.3l8.24-3.73c-.22-.06-.98-.31-1.19-.37Z"/>
              <path class="st4" d="M222.76,34.96c0-1.9-2.02-3.61-5.43-4.94l-.84.32c3.54,1.26,5.72,2.88,5.72,4.62,0,3.89-10.83,7.18-23.65,7.18-3.84,0-7.51-.3-10.75-.81l-13.1,4.32c2.77,8.91,12.41,15.49,23.85,15.49,13.59,0,24.65-9.3,24.65-20.73,0-1.34-.15-3.77-.45-5.2,0-.09.01-.17.01-.25Z"/>
              <path class="st4" d="M177.62,38.42c-1.48-.93-2.73-2.38-2.73-3.46,0-3.89,10.83-7.19,23.66-7.19.5,0,.99,0,1.48.02l1.19-.53c-.88-.03-1.76-.04-2.67-.04-13.58,0-24.22,3.4-24.22,7.75,0,.11,0,.17.03.2-.24,1.13-.39,3.62-.44,4.99l3.71-1.73Z"/>
              <polygon class="st4" points="218.29 21.02 171.35 41.99 219.36 23.61 218.29 21.02"/>
              <polygon class="st4" points="223.45 25.98 222.38 23.39 175.44 44.37 223.45 25.98"/>
            </g>
          </g>
          <g id="SVGRepo_iconCarrier6" data-name="SVGRepo_iconCarrier">
            <g id="b193_chinese_bowl6" data-name="b193_chinese_bowl">
              <path class="st4" d="M241.85,39.84l-7.34,2.81c.07.55.17.77.29,1.3l8.24-3.73c-.22-.06-.98-.31-1.19-.37Z"/>
              <path class="st4" d="M283.22,34.96c0-1.9-2.02-3.61-5.43-4.94l-.84.32c3.54,1.26,5.72,2.88,5.72,4.62,0,3.89-10.83,7.18-23.65,7.18-3.85,0-7.51-.3-10.75-.81l-13.1,4.32c2.77,8.91,12.41,15.49,23.85,15.49,13.59,0,24.65-9.3,24.65-20.73,0-1.34-.15-3.77-.45-5.2,0-.09.01-.17.01-.25Z"/>
              <path class="st4" d="M238.09,38.42c-1.48-.93-2.73-2.38-2.73-3.46,0-3.89,10.83-7.19,23.66-7.19.5,0,.99,0,1.48.02l1.19-.53c-.88-.03-1.77-.04-2.67-.04-13.58,0-24.22,3.4-24.22,7.75,0,.11,0,.17.03.2-.24,1.13-.39,3.62-.44,4.99l3.71-1.73Z"/>
              <polygon class="st4" points="278.75 21.02 231.82 41.99 279.83 23.61 278.75 21.02"/>
              <polygon class="st4" points="283.92 25.98 282.84 23.39 235.91 44.37 283.92 25.98"/>
            </g>
          </g>
          <g id="SVGRepo_iconCarrier7" data-name="SVGRepo_iconCarrier">
            <g id="b193_chinese_bowl7" data-name="b193_chinese_bowl">
              <path class="st4" d="M302.32,39.84l-7.34,2.81c.07.55.17.77.29,1.3l8.24-3.73c-.22-.06-.98-.31-1.19-.37Z"/>
              <path class="st4" d="M343.69,34.96c0-1.9-2.02-3.61-5.43-4.94l-.84.32c3.54,1.26,5.72,2.88,5.72,4.62,0,3.89-10.83,7.18-23.65,7.18-3.85,0-7.51-.3-10.75-.81l-13.1,4.32c2.77,8.91,12.41,15.49,23.85,15.49,13.59,0,24.65-9.3,24.65-20.73,0-1.34-.15-3.77-.45-5.2,0-.09.01-.17.01-.25Z"/>
              <path class="st4" d="M298.56,38.42c-1.48-.93-2.73-2.38-2.73-3.46,0-3.89,10.83-7.19,23.66-7.19.5,0,.99,0,1.48.02l1.19-.53c-.88-.03-1.77-.04-2.67-.04-13.58,0-24.22,3.4-24.22,7.75,0,.11,0,.17.03.2-.24,1.13-.39,3.62-.44,4.99l3.71-1.73Z"/>
              <polygon class="st4" points="339.22 21.02 292.29 41.99 340.29 23.61 339.22 21.02"/>
              <polygon class="st4" points="344.39 25.98 343.31 23.39 296.38 44.37 344.39 25.98"/>
            </g>
          </g>
          <g id="SVGRepo_iconCarrier8" data-name="SVGRepo_iconCarrier">
            <g id="b193_chinese_bowl8" data-name="b193_chinese_bowl">
              <path class="st4" d="M362.78,39.84l-7.34,2.81c.07.55.17.77.29,1.3l8.24-3.73c-.22-.06-.98-.31-1.19-.37Z"/>
              <path class="st4" d="M404.16,34.96c0-1.9-2.02-3.61-5.43-4.94l-.84.32c3.54,1.26,5.72,2.88,5.72,4.62,0,3.89-10.83,7.18-23.65,7.18-3.85,0-7.51-.3-10.75-.81l-13.1,4.32c2.77,8.91,12.41,15.49,23.85,15.49,13.59,0,24.65-9.3,24.65-20.73,0-1.34-.15-3.77-.45-5.2,0-.09.01-.17.01-.25Z"/>
              <path class="st4" d="M359.02,38.42c-1.48-.93-2.73-2.38-2.73-3.46,0-3.89,10.83-7.19,23.66-7.19.5,0,.99,0,1.48.02l1.19-.53c-.88-.03-1.77-.04-2.67-.04-13.58,0-24.22,3.4-24.22,7.75,0,.11,0,.17.03.2-.24,1.13-.39,3.62-.44,4.99l3.71-1.73Z"/>
              <polygon class="st4" points="399.69 21.02 352.76 41.99 400.76 23.61 399.69 21.02"/>
              <polygon class="st4" points="404.85 25.98 403.78 23.39 356.85 44.37 404.85 25.98"/>
            </g>
          </g>
          <g id="SVGRepo_iconCarrier9" data-name="SVGRepo_iconCarrier">
            <g id="b193_chinese_bowl9" data-name="b193_chinese_bowl">
              <path class="st4" d="M-120.96,88.34l-7.34,2.81c.07.55.17.77.29,1.3l8.24-3.73c-.22-.06-.98-.31-1.19-.37Z"/>
              <path class="st4" d="M-79.59,83.45c0-1.9-2.02-3.61-5.43-4.94l-.84.32c3.54,1.26,5.72,2.88,5.72,4.62,0,3.89-10.83,7.18-23.65,7.18-3.84,0-7.51-.3-10.75-.81l-13.1,4.32c2.77,8.91,12.41,15.49,23.85,15.49,13.59,0,24.65-9.3,24.65-20.73,0-1.34-.15-3.77-.45-5.2,0-.09.01-.17.01-.25Z"/>
              <path class="st4" d="M-124.72,86.91c-1.48-.93-2.73-2.38-2.73-3.46,0-3.89,10.83-7.19,23.66-7.19.5,0,.99,0,1.48.02l1.19-.53c-.88-.03-1.77-.04-2.67-.04-13.58,0-24.22,3.4-24.22,7.75,0,.11,0,.17.03.2-.24,1.13-.39,3.62-.44,4.99l3.71-1.73Z"/>
              <polygon class="st4" points="-84.06 69.51 -130.99 90.48 -82.98 72.1 -84.06 69.51"/>
              <polygon class="st4" points="-78.89 74.47 -79.96 71.88 -126.9 92.86 -78.89 74.47"/>
            </g>
          </g>
          <g id="SVGRepo_iconCarrier10" data-name="SVGRepo_iconCarrier">
            <g id="b193_chinese_bowl10" data-name="b193_chinese_bowl">
              <path class="st4" d="M-60.49,88.34l-7.34,2.81c.07.55.17.77.29,1.3l8.24-3.73c-.22-.06-.98-.31-1.19-.37Z"/>
              <path class="st4" d="M-19.12,83.45c0-1.9-2.02-3.61-5.43-4.94l-.84.32c3.54,1.26,5.72,2.88,5.72,4.62,0,3.89-10.83,7.18-23.65,7.18-3.85,0-7.51-.3-10.75-.81l-13.1,4.32c2.77,8.91,12.41,15.49,23.85,15.49,13.59,0,24.65-9.3,24.65-20.73,0-1.34-.15-3.77-.45-5.2,0-.09.01-.17.01-.25Z"/>
              <path class="st4" d="M-64.25,86.91c-1.48-.93-2.73-2.38-2.73-3.46,0-3.89,10.83-7.19,23.66-7.19.5,0,.99,0,1.48.02l1.19-.53c-.88-.03-1.77-.04-2.67-.04-13.58,0-24.22,3.4-24.22,7.75,0,.11,0,.17.03.2-.24,1.13-.39,3.62-.44,4.99l3.71-1.73Z"/>
              <polygon class="st4" points="-23.59 69.51 -70.52 90.48 -22.52 72.1 -23.59 69.51"/>
              <polygon class="st4" points="-18.42 74.47 -19.5 71.88 -66.43 92.86 -18.42 74.47"/>
            </g>
          </g>
          <g id="SVGRepo_iconCarrier11" data-name="SVGRepo_iconCarrier">
            <g id="b193_chinese_bowl11" data-name="b193_chinese_bowl">
              <path class="st4" d="M-.03,88.34l-7.34,2.81c.07.55.17.77.29,1.3l8.24-3.73c-.22-.06-.98-.31-1.19-.37Z"/>
              <path class="st4" d="M41.35,83.45c0-1.9-2.02-3.61-5.43-4.94l-.84.32c3.54,1.26,5.72,2.88,5.72,4.62,0,3.89-10.83,7.18-23.65,7.18-3.84,0-7.51-.3-10.75-.81l-13.1,4.32c2.77,8.91,12.41,15.49,23.85,15.49,13.59,0,24.65-9.3,24.65-20.73,0-1.34-.15-3.77-.45-5.2,0-.09.01-.17.01-.25Z"/>
              <path class="st4" d="M-3.78,86.91c-1.48-.93-2.73-2.38-2.73-3.46,0-3.89,10.83-7.19,23.66-7.19.5,0,.99,0,1.48.02l1.19-.53c-.88-.03-1.77-.04-2.67-.04-13.58,0-24.22,3.4-24.22,7.75,0,.11,0,.17.03.2-.24,1.13-.39,3.62-.44,4.99l3.71-1.73Z"/>
              <polygon class="st4" points="36.88 69.51 -10.05 90.48 37.95 72.1 36.88 69.51"/>
              <polygon class="st4" points="42.05 74.47 40.97 71.88 -5.96 92.86 42.05 74.47"/>
            </g>
          </g>
          <g id="SVGRepo_iconCarrier12" data-name="SVGRepo_iconCarrier">
            <g id="b193_chinese_bowl12" data-name="b193_chinese_bowl">
              <path class="st4" d="M60.44,88.34l-7.34,2.81c.07.55.17.77.29,1.3l8.24-3.73c-.22-.06-.98-.31-1.19-.37Z"/>
              <path class="st4" d="M101.82,83.45c0-1.9-2.02-3.61-5.43-4.94l-.84.32c3.54,1.26,5.72,2.88,5.72,4.62,0,3.89-10.83,7.18-23.65,7.18-3.84,0-7.51-.3-10.75-.81l-13.1,4.32c2.77,8.91,12.41,15.49,23.85,15.49,13.59,0,24.65-9.3,24.65-20.73,0-1.34-.15-3.77-.45-5.2,0-.09.01-.17.01-.25Z"/>
              <path class="st4" d="M56.68,86.91c-1.48-.93-2.73-2.38-2.73-3.46,0-3.89,10.83-7.19,23.66-7.19.5,0,.99,0,1.48.02l1.19-.53c-.88-.03-1.77-.04-2.67-.04-13.58,0-24.22,3.4-24.22,7.75,0,.11,0,.17.03.2-.24,1.13-.39,3.62-.44,4.99l3.71-1.73Z"/>
              <polygon class="st4" points="97.35 69.51 50.42 90.48 98.42 72.1 97.35 69.51"/>
              <polygon class="st4" points="102.51 74.47 101.44 71.88 54.51 92.86 102.51 74.47"/>
            </g>
          </g>
          <g id="SVGRepo_iconCarrier13" data-name="SVGRepo_iconCarrier">
            <g id="b193_chinese_bowl13" data-name="b193_chinese_bowl">
              <path class="st4" d="M120.91,88.34l-7.34,2.81c.07.55.17.77.29,1.3l8.24-3.73c-.22-.06-.98-.31-1.19-.37Z"/>
              <path class="st4" d="M162.29,83.45c0-1.9-2.02-3.61-5.43-4.94l-.84.32c3.54,1.26,5.71,2.88,5.71,4.62,0,3.89-10.83,7.18-23.65,7.18-3.85,0-7.51-.3-10.75-.81l-13.1,4.32c2.77,8.91,12.41,15.49,23.85,15.49,13.59,0,24.65-9.3,24.65-20.73,0-1.34-.15-3.77-.45-5.2,0-.09.01-.17.01-.25Z"/>
              <path class="st4" d="M117.15,86.91c-1.48-.93-2.73-2.38-2.73-3.46,0-3.89,10.83-7.19,23.66-7.19.5,0,.99,0,1.48.02l1.19-.53c-.88-.03-1.77-.04-2.67-.04-13.58,0-24.22,3.4-24.22,7.75,0,.11,0,.17.03.2-.24,1.13-.39,3.62-.44,4.99l3.71-1.73Z"/>
              <polygon class="st4" points="157.82 69.51 110.88 90.48 158.89 72.1 157.82 69.51"/>
              <polygon class="st4" points="162.98 74.47 161.91 71.88 114.97 92.86 162.98 74.47"/>
            </g>
          </g>
          <g id="SVGRepo_iconCarrier14" data-name="SVGRepo_iconCarrier">
            <g id="b193_chinese_bowl14" data-name="b193_chinese_bowl">
              <path class="st4" d="M181.38,88.34l-7.34,2.81c.07.55.17.77.29,1.3l8.24-3.73c-.22-.06-.98-.31-1.19-.37Z"/>
              <path class="st4" d="M222.76,83.45c0-1.9-2.02-3.61-5.43-4.94l-.84.32c3.54,1.26,5.72,2.88,5.72,4.62,0,3.89-10.83,7.18-23.65,7.18-3.84,0-7.51-.3-10.75-.81l-13.1,4.32c2.77,8.91,12.41,15.49,23.85,15.49,13.59,0,24.65-9.3,24.65-20.73,0-1.34-.15-3.77-.45-5.2,0-.09.01-.17.01-.25Z"/>
              <path class="st4" d="M177.62,86.91c-1.48-.93-2.73-2.38-2.73-3.46,0-3.89,10.83-7.19,23.66-7.19.5,0,.99,0,1.48.02l1.19-.53c-.88-.03-1.76-.04-2.67-.04-13.58,0-24.22,3.4-24.22,7.75,0,.11,0,.17.03.2-.24,1.13-.39,3.62-.44,4.99l3.71-1.73Z"/>
              <polygon class="st4" points="218.29 69.51 171.35 90.48 219.36 72.1 218.29 69.51"/>
              <polygon class="st4" points="223.45 74.47 222.38 71.88 175.44 92.86 223.45 74.47"/>
            </g>
          </g>
          <g id="SVGRepo_iconCarrier15" data-name="SVGRepo_iconCarrier">
            <g id="b193_chinese_bowl15" data-name="b193_chinese_bowl">
              <path class="st4" d="M241.85,88.34l-7.34,2.81c.07.55.17.77.29,1.3l8.24-3.73c-.22-.06-.98-.31-1.19-.37Z"/>
              <path class="st4" d="M283.22,83.45c0-1.9-2.02-3.61-5.43-4.94l-.84.32c3.54,1.26,5.72,2.88,5.72,4.62,0,3.89-10.83,7.18-23.65,7.18-3.85,0-7.51-.3-10.75-.81l-13.1,4.32c2.77,8.91,12.41,15.49,23.85,15.49,13.59,0,24.65-9.3,24.65-20.73,0-1.34-.15-3.77-.45-5.2,0-.09.01-.17.01-.25Z"/>
              <path class="st4" d="M238.09,86.91c-1.48-.93-2.73-2.38-2.73-3.46,0-3.89,10.83-7.19,23.66-7.19.5,0,.99,0,1.48.02l1.19-.53c-.88-.03-1.77-.04-2.67-.04-13.58,0-24.22,3.4-24.22,7.75,0,.11,0,.17.03.2-.24,1.13-.39,3.62-.44,4.99l3.71-1.73Z"/>
              <polygon class="st4" points="278.75 69.51 231.82 90.48 279.83 72.1 278.75 69.51"/>
              <polygon class="st4" points="283.92 74.47 282.84 71.88 235.91 92.86 283.92 74.47"/>
            </g>
          </g>
          <g id="SVGRepo_iconCarrier16" data-name="SVGRepo_iconCarrier">
            <g id="b193_chinese_bowl16" data-name="b193_chinese_bowl">
              <path class="st4" d="M302.32,88.34l-7.34,2.81c.07.55.17.77.29,1.3l8.24-3.73c-.22-.06-.98-.31-1.19-.37Z"/>
              <path class="st4" d="M343.69,83.45c0-1.9-2.02-3.61-5.43-4.94l-.84.32c3.54,1.26,5.72,2.88,5.72,4.62,0,3.89-10.83,7.18-23.65,7.18-3.85,0-7.51-.3-10.75-.81l-13.1,4.32c2.77,8.91,12.41,15.49,23.85,15.49,13.59,0,24.65-9.3,24.65-20.73,0-1.34-.15-3.77-.45-5.2,0-.09.01-.17.01-.25Z"/>
              <path class="st4" d="M298.56,86.91c-1.48-.93-2.73-2.38-2.73-3.46,0-3.89,10.83-7.19,23.66-7.19.5,0,.99,0,1.48.02l1.19-.53c-.88-.03-1.77-.04-2.67-.04-13.58,0-24.22,3.4-24.22,7.75,0,.11,0,.17.03.2-.24,1.13-.39,3.62-.44,4.99l3.71-1.73Z"/>
              <polygon class="st4" points="339.22 69.51 292.29 90.48 340.29 72.1 339.22 69.51"/>
              <polygon class="st4" points="344.39 74.47 343.31 71.88 296.38 92.86 344.39 74.47"/>
            </g>
          </g>
          <g id="SVGRepo_iconCarrier17" data-name="SVGRepo_iconCarrier">
            <g id="b193_chinese_bowl17" data-name="b193_chinese_bowl">
              <path class="st4" d="M362.78,88.34l-7.34,2.81c.07.55.17.77.29,1.3l8.24-3.73c-.22-.06-.98-.31-1.19-.37Z"/>
              <path class="st4" d="M404.16,83.45c0-1.9-2.02-3.61-5.43-4.94l-.84.32c3.54,1.26,5.72,2.88,5.72,4.62,0,3.89-10.83,7.18-23.65,7.18-3.85,0-7.51-.3-10.75-.81l-13.1,4.32c2.77,8.91,12.41,15.49,23.85,15.49,13.59,0,24.65-9.3,24.65-20.73,0-1.34-.15-3.77-.45-5.2,0-.09.01-.17.01-.25Z"/>
              <path class="st4" d="M359.02,86.91c-1.48-.93-2.73-2.38-2.73-3.46,0-3.89,10.83-7.19,23.66-7.19.5,0,.99,0,1.48.02l1.19-.53c-.88-.03-1.77-.04-2.67-.04-13.58,0-24.22,3.4-24.22,7.75,0,.11,0,.17.03.2-.24,1.13-.39,3.62-.44,4.99l3.71-1.73Z"/>
              <polygon class="st4" points="399.69 69.51 352.76 90.48 400.76 72.1 399.69 69.51"/>
              <polygon class="st4" points="404.85 74.47 403.78 71.88 356.85 92.86 404.85 74.47"/>
            </g>
          </g>
          <g id="SVGRepo_iconCarrier18" data-name="SVGRepo_iconCarrier">
            <g id="b193_chinese_bowl18" data-name="b193_chinese_bowl">
              <path class="st4" d="M-120.96,136.83l-7.34,2.81c.07.55.17.77.29,1.3l8.24-3.73c-.22-.06-.98-.31-1.19-.37Z"/>
              <path class="st4" d="M-79.59,131.95c0-1.9-2.02-3.61-5.43-4.94l-.84.32c3.54,1.26,5.72,2.88,5.72,4.62,0,3.89-10.83,7.18-23.65,7.18-3.84,0-7.51-.3-10.75-.81l-13.1,4.32c2.77,8.91,12.41,15.49,23.85,15.49,13.59,0,24.65-9.3,24.65-20.73,0-1.34-.15-3.77-.45-5.2,0-.09.01-.17.01-.25Z"/>
              <path class="st4" d="M-124.72,135.4c-1.48-.93-2.73-2.38-2.73-3.46,0-3.89,10.83-7.19,23.66-7.19.5,0,.99,0,1.48.02l1.19-.53c-.88-.03-1.77-.04-2.67-.04-13.58,0-24.22,3.4-24.22,7.75,0,.11,0,.17.03.2-.24,1.13-.39,3.62-.44,4.99l3.71-1.73Z"/>
              <polygon class="st4" points="-84.06 118 -130.99 138.97 -82.98 120.59 -84.06 118"/>
              <polygon class="st4" points="-78.89 122.96 -79.96 120.38 -126.9 141.35 -78.89 122.96"/>
            </g>
          </g>
          <g id="SVGRepo_iconCarrier19" data-name="SVGRepo_iconCarrier">
            <g id="b193_chinese_bowl19" data-name="b193_chinese_bowl">
              <path class="st4" d="M-60.49,136.83l-7.34,2.81c.07.55.17.77.29,1.3l8.24-3.73c-.22-.06-.98-.31-1.19-.37Z"/>
              <path class="st4" d="M-19.12,131.95c0-1.9-2.02-3.61-5.43-4.94l-.84.32c3.54,1.26,5.72,2.88,5.72,4.62,0,3.89-10.83,7.18-23.65,7.18-3.85,0-7.51-.3-10.75-.81l-13.1,4.32c2.77,8.91,12.41,15.49,23.85,15.49,13.59,0,24.65-9.3,24.65-20.73,0-1.34-.15-3.77-.45-5.2,0-.09.01-.17.01-.25Z"/>
              <path class="st4" d="M-64.25,135.4c-1.48-.93-2.73-2.38-2.73-3.46,0-3.89,10.83-7.19,23.66-7.19.5,0,.99,0,1.48.02l1.19-.53c-.88-.03-1.77-.04-2.67-.04-13.58,0-24.22,3.4-24.22,7.75,0,.11,0,.17.03.2-.24,1.13-.39,3.62-.44,4.99l3.71-1.73Z"/>
              <polygon class="st4" points="-23.59 118 -70.52 138.97 -22.52 120.59 -23.59 118"/>
              <polygon class="st4" points="-18.42 122.96 -19.5 120.38 -66.43 141.35 -18.42 122.96"/>
            </g>
          </g>
          <g id="SVGRepo_iconCarrier20" data-name="SVGRepo_iconCarrier">
            <g id="b193_chinese_bowl20" data-name="b193_chinese_bowl">
              <path class="st4" d="M-.03,136.83l-7.34,2.81c.07.55.17.77.29,1.3l8.24-3.73c-.22-.06-.98-.31-1.19-.37Z"/>
              <path class="st4" d="M41.35,131.95c0-1.9-2.02-3.61-5.43-4.94l-.84.32c3.54,1.26,5.72,2.88,5.72,4.62,0,3.89-10.83,7.18-23.65,7.18-3.84,0-7.51-.3-10.75-.81l-13.1,4.32c2.77,8.91,12.41,15.49,23.85,15.49,13.59,0,24.65-9.3,24.65-20.73,0-1.34-.15-3.77-.45-5.2,0-.09.01-.17.01-.25Z"/>
              <path class="st4" d="M-3.78,135.4c-1.48-.93-2.73-2.38-2.73-3.46,0-3.89,10.83-7.19,23.66-7.19.5,0,.99,0,1.48.02l1.19-.53c-.88-.03-1.77-.04-2.67-.04-13.58,0-24.22,3.4-24.22,7.75,0,.11,0,.17.03.2-.24,1.13-.39,3.62-.44,4.99l3.71-1.73Z"/>
              <polygon class="st4" points="36.88 118 -10.05 138.97 37.95 120.59 36.88 118"/>
              <polygon class="st4" points="42.05 122.96 40.97 120.38 -5.96 141.35 42.05 122.96"/>
            </g>
          </g>
          <g id="SVGRepo_iconCarrier21" data-name="SVGRepo_iconCarrier">
            <g id="b193_chinese_bowl21" data-name="b193_chinese_bowl">
              <path class="st4" d="M60.44,136.83l-7.34,2.81c.07.55.17.77.29,1.3l8.24-3.73c-.22-.06-.98-.31-1.19-.37Z"/>
              <path class="st4" d="M101.82,131.95c0-1.9-2.02-3.61-5.43-4.94l-.84.32c3.54,1.26,5.72,2.88,5.72,4.62,0,3.89-10.83,7.18-23.65,7.18-3.84,0-7.51-.3-10.75-.81l-13.1,4.32c2.77,8.91,12.41,15.49,23.85,15.49,13.59,0,24.65-9.3,24.65-20.73,0-1.34-.15-3.77-.45-5.2,0-.09.01-.17.01-.25Z"/>
              <path class="st4" d="M56.68,135.4c-1.48-.93-2.73-2.38-2.73-3.46,0-3.89,10.83-7.19,23.66-7.19.5,0,.99,0,1.48.02l1.19-.53c-.88-.03-1.77-.04-2.67-.04-13.58,0-24.22,3.4-24.22,7.75,0,.11,0,.17.03.2-.24,1.13-.39,3.62-.44,4.99l3.71-1.73Z"/>
              <polygon class="st4" points="97.35 118 50.42 138.97 98.42 120.59 97.35 118"/>
              <polygon class="st4" points="102.51 122.96 101.44 120.38 54.51 141.35 102.51 122.96"/>
            </g>
          </g>
          <g id="SVGRepo_iconCarrier22" data-name="SVGRepo_iconCarrier">
            <g id="b193_chinese_bowl22" data-name="b193_chinese_bowl">
              <path class="st4" d="M120.91,136.83l-7.34,2.81c.07.55.17.77.29,1.3l8.24-3.73c-.22-.06-.98-.31-1.19-.37Z"/>
              <path class="st4" d="M162.29,131.95c0-1.9-2.02-3.61-5.43-4.94l-.84.32c3.54,1.26,5.71,2.88,5.71,4.62,0,3.89-10.83,7.18-23.65,7.18-3.85,0-7.51-.3-10.75-.81l-13.1,4.32c2.77,8.91,12.41,15.49,23.85,15.49,13.59,0,24.65-9.3,24.65-20.73,0-1.34-.15-3.77-.45-5.2,0-.09.01-.17.01-.25Z"/>
              <path class="st4" d="M117.15,135.4c-1.48-.93-2.73-2.38-2.73-3.46,0-3.89,10.83-7.19,23.66-7.19.5,0,.99,0,1.48.02l1.19-.53c-.88-.03-1.77-.04-2.67-.04-13.58,0-24.22,3.4-24.22,7.75,0,.11,0,.17.03.2-.24,1.13-.39,3.62-.44,4.99l3.71-1.73Z"/>
              <polygon class="st4" points="157.82 118 110.88 138.97 158.89 120.59 157.82 118"/>
              <polygon class="st4" points="162.98 122.96 161.91 120.38 114.97 141.35 162.98 122.96"/>
            </g>
          </g>
          <g id="SVGRepo_iconCarrier23" data-name="SVGRepo_iconCarrier">
            <g id="b193_chinese_bowl23" data-name="b193_chinese_bowl">
              <path class="st4" d="M181.38,136.83l-7.34,2.81c.07.55.17.77.29,1.3l8.24-3.73c-.22-.06-.98-.31-1.19-.37Z"/>
              <path class="st4" d="M222.76,131.95c0-1.9-2.02-3.61-5.43-4.94l-.84.32c3.54,1.26,5.72,2.88,5.72,4.62,0,3.89-10.83,7.18-23.65,7.18-3.84,0-7.51-.3-10.75-.81l-13.1,4.32c2.77,8.91,12.41,15.49,23.85,15.49,13.59,0,24.65-9.3,24.65-20.73,0-1.34-.15-3.77-.45-5.2,0-.09.01-.17.01-.25Z"/>
              <path class="st4" d="M177.62,135.4c-1.48-.93-2.73-2.38-2.73-3.46,0-3.89,10.83-7.19,23.66-7.19.5,0,.99,0,1.48.02l1.19-.53c-.88-.03-1.76-.04-2.67-.04-13.58,0-24.22,3.4-24.22,7.75,0,.11,0,.17.03.2-.24,1.13-.39,3.62-.44,4.99l3.71-1.73Z"/>
              <polygon class="st4" points="218.29 118 171.35 138.97 219.36 120.59 218.29 118"/>
              <polygon class="st4" points="223.45 122.96 222.38 120.38 175.44 141.35 223.45 122.96"/>
            </g>
          </g>
          <g id="SVGRepo_iconCarrier24" data-name="SVGRepo_iconCarrier">
            <g id="b193_chinese_bowl24" data-name="b193_chinese_bowl">
              <path class="st4" d="M241.85,136.83l-7.34,2.81c.07.55.17.77.29,1.3l8.24-3.73c-.22-.06-.98-.31-1.19-.37Z"/>
              <path class="st4" d="M283.22,131.95c0-1.9-2.02-3.61-5.43-4.94l-.84.32c3.54,1.26,5.72,2.88,5.72,4.62,0,3.89-10.83,7.18-23.65,7.18-3.85,0-7.51-.3-10.75-.81l-13.1,4.32c2.77,8.91,12.41,15.49,23.85,15.49,13.59,0,24.65-9.3,24.65-20.73,0-1.34-.15-3.77-.45-5.2,0-.09.01-.17.01-.25Z"/>
              <path class="st4" d="M238.09,135.4c-1.48-.93-2.73-2.38-2.73-3.46,0-3.89,10.83-7.19,23.66-7.19.5,0,.99,0,1.48.02l1.19-.53c-.88-.03-1.77-.04-2.67-.04-13.58,0-24.22,3.4-24.22,7.75,0,.11,0,.17.03.2-.24,1.13-.39,3.62-.44,4.99l3.71-1.73Z"/>
              <polygon class="st4" points="278.75 118 231.82 138.97 279.83 120.59 278.75 118"/>
              <polygon class="st4" points="283.92 122.96 282.84 120.38 235.91 141.35 283.92 122.96"/>
            </g>
          </g>
          <g id="SVGRepo_iconCarrier25" data-name="SVGRepo_iconCarrier">
            <g id="b193_chinese_bowl25" data-name="b193_chinese_bowl">
              <path class="st4" d="M302.32,136.83l-7.34,2.81c.07.55.17.77.29,1.3l8.24-3.73c-.22-.06-.98-.31-1.19-.37Z"/>
              <path class="st4" d="M343.69,131.95c0-1.9-2.02-3.61-5.43-4.94l-.84.32c3.54,1.26,5.72,2.88,5.72,4.62,0,3.89-10.83,7.18-23.65,7.18-3.85,0-7.51-.3-10.75-.81l-13.1,4.32c2.77,8.91,12.41,15.49,23.85,15.49,13.59,0,24.65-9.3,24.65-20.73,0-1.34-.15-3.77-.45-5.2,0-.09.01-.17.01-.25Z"/>
              <path class="st4" d="M298.56,135.4c-1.48-.93-2.73-2.38-2.73-3.46,0-3.89,10.83-7.19,23.66-7.19.5,0,.99,0,1.48.02l1.19-.53c-.88-.03-1.77-.04-2.67-.04-13.58,0-24.22,3.4-24.22,7.75,0,.11,0,.17.03.2-.24,1.13-.39,3.62-.44,4.99l3.71-1.73Z"/>
              <polygon class="st4" points="339.22 118 292.29 138.97 340.29 120.59 339.22 118"/>
              <polygon class="st4" points="344.39 122.96 343.31 120.38 296.38 141.35 344.39 122.96"/>
            </g>
          </g>
          <g id="SVGRepo_iconCarrier26" data-name="SVGRepo_iconCarrier">
            <g id="b193_chinese_bowl26" data-name="b193_chinese_bowl">
              <path class="st4" d="M362.78,136.83l-7.34,2.81c.07.55.17.77.29,1.3l8.24-3.73c-.22-.06-.98-.31-1.19-.37Z"/>
              <path class="st4" d="M404.16,131.95c0-1.9-2.02-3.61-5.43-4.94l-.84.32c3.54,1.26,5.72,2.88,5.72,4.62,0,3.89-10.83,7.18-23.65,7.18-3.85,0-7.51-.3-10.75-.81l-13.1,4.32c2.77,8.91,12.41,15.49,23.85,15.49,13.59,0,24.65-9.3,24.65-20.73,0-1.34-.15-3.77-.45-5.2,0-.09.01-.17.01-.25Z"/>
              <path class="st4" d="M359.02,135.4c-1.48-.93-2.73-2.38-2.73-3.46,0-3.89,10.83-7.19,23.66-7.19.5,0,.99,0,1.48.02l1.19-.53c-.88-.03-1.77-.04-2.67-.04-13.58,0-24.22,3.4-24.22,7.75,0,.11,0,.17.03.2-.24,1.13-.39,3.62-.44,4.99l3.71-1.73Z"/>
              <polygon class="st4" points="399.69 118 352.76 138.97 400.76 120.59 399.69 118"/>
              <polygon class="st4" points="404.85 122.96 403.78 120.38 356.85 141.35 404.85 122.96"/>
            </g>
          </g>
          <g id="SVGRepo_iconCarrier27" data-name="SVGRepo_iconCarrier">
            <g id="b193_chinese_bowl27" data-name="b193_chinese_bowl">
              <path class="st4" d="M-120.96,185.32l-7.34,2.81c.07.55.17.77.29,1.3l8.24-3.73c-.22-.06-.98-.31-1.19-.37Z"/>
              <path class="st4" d="M-79.59,180.44c0-1.9-2.02-3.61-5.43-4.94l-.84.32c3.54,1.26,5.72,2.88,5.72,4.62,0,3.89-10.83,7.18-23.65,7.18-3.84,0-7.51-.3-10.75-.81l-13.1,4.32c2.77,8.91,12.41,15.49,23.85,15.49,13.59,0,24.65-9.3,24.65-20.73,0-1.34-.15-3.77-.45-5.2,0-.09.01-.17.01-.25Z"/>
              <path class="st4" d="M-124.72,183.89c-1.48-.93-2.73-2.38-2.73-3.46,0-3.89,10.83-7.19,23.66-7.19.5,0,.99,0,1.48.02l1.19-.53c-.88-.03-1.77-.04-2.67-.04-13.58,0-24.22,3.4-24.22,7.75,0,.11,0,.17.03.2-.24,1.13-.39,3.62-.44,4.99l3.71-1.73Z"/>
              <polygon class="st4" points="-84.06 166.5 -130.99 187.46 -82.98 169.08 -84.06 166.5"/>
              <polygon class="st4" points="-78.89 171.46 -79.96 168.87 -126.9 189.84 -78.89 171.46"/>
            </g>
          </g>
          <g id="SVGRepo_iconCarrier28" data-name="SVGRepo_iconCarrier">
            <g id="b193_chinese_bowl28" data-name="b193_chinese_bowl">
              <path class="st4" d="M-60.49,185.32l-7.34,2.81c.07.55.17.77.29,1.3l8.24-3.73c-.22-.06-.98-.31-1.19-.37Z"/>
              <path class="st4" d="M-19.12,180.44c0-1.9-2.02-3.61-5.43-4.94l-.84.32c3.54,1.26,5.72,2.88,5.72,4.62,0,3.89-10.83,7.18-23.65,7.18-3.85,0-7.51-.3-10.75-.81l-13.1,4.32c2.77,8.91,12.41,15.49,23.85,15.49,13.59,0,24.65-9.3,24.65-20.73,0-1.34-.15-3.77-.45-5.2,0-.09.01-.17.01-.25Z"/>
              <path class="st4" d="M-64.25,183.89c-1.48-.93-2.73-2.38-2.73-3.46,0-3.89,10.83-7.19,23.66-7.19.5,0,.99,0,1.48.02l1.19-.53c-.88-.03-1.77-.04-2.67-.04-13.58,0-24.22,3.4-24.22,7.75,0,.11,0,.17.03.2-.24,1.13-.39,3.62-.44,4.99l3.71-1.73Z"/>
              <polygon class="st4" points="-23.59 166.5 -70.52 187.46 -22.52 169.08 -23.59 166.5"/>
              <polygon class="st4" points="-18.42 171.46 -19.5 168.87 -66.43 189.84 -18.42 171.46"/>
            </g>
          </g>
          <g id="SVGRepo_iconCarrier29" data-name="SVGRepo_iconCarrier">
            <g id="b193_chinese_bowl29" data-name="b193_chinese_bowl">
              <path class="st4" d="M-.03,185.32l-7.34,2.81c.07.55.17.77.29,1.3l8.24-3.73c-.22-.06-.98-.31-1.19-.37Z"/>
              <path class="st4" d="M41.35,180.44c0-1.9-2.02-3.61-5.43-4.94l-.84.32c3.54,1.26,5.72,2.88,5.72,4.62,0,3.89-10.83,7.18-23.65,7.18-3.84,0-7.51-.3-10.75-.81l-13.1,4.32c2.77,8.91,12.41,15.49,23.85,15.49,13.59,0,24.65-9.3,24.65-20.73,0-1.34-.15-3.77-.45-5.2,0-.09.01-.17.01-.25Z"/>
              <path class="st4" d="M-3.78,183.89c-1.48-.93-2.73-2.38-2.73-3.46,0-3.89,10.83-7.19,23.66-7.19.5,0,.99,0,1.48.02l1.19-.53c-.88-.03-1.77-.04-2.67-.04-13.58,0-24.22,3.4-24.22,7.75,0,.11,0,.17.03.2-.24,1.13-.39,3.62-.44,4.99l3.71-1.73Z"/>
              <polygon class="st4" points="36.88 166.5 -10.05 187.46 37.95 169.08 36.88 166.5"/>
              <polygon class="st4" points="42.05 171.46 40.97 168.87 -5.96 189.84 42.05 171.46"/>
            </g>
          </g>
          <g id="SVGRepo_iconCarrier30" data-name="SVGRepo_iconCarrier">
            <g id="b193_chinese_bowl30" data-name="b193_chinese_bowl">
              <path class="st4" d="M60.44,185.32l-7.34,2.81c.07.55.17.77.29,1.3l8.24-3.73c-.22-.06-.98-.31-1.19-.37Z"/>
              <path class="st4" d="M101.82,180.44c0-1.9-2.02-3.61-5.43-4.94l-.84.32c3.54,1.26,5.72,2.88,5.72,4.62,0,3.89-10.83,7.18-23.65,7.18-3.84,0-7.51-.3-10.75-.81l-13.1,4.32c2.77,8.91,12.41,15.49,23.85,15.49,13.59,0,24.65-9.3,24.65-20.73,0-1.34-.15-3.77-.45-5.2,0-.09.01-.17.01-.25Z"/>
              <path class="st4" d="M56.68,183.89c-1.48-.93-2.73-2.38-2.73-3.46,0-3.89,10.83-7.19,23.66-7.19.5,0,.99,0,1.48.02l1.19-.53c-.88-.03-1.77-.04-2.67-.04-13.58,0-24.22,3.4-24.22,7.75,0,.11,0,.17.03.2-.24,1.13-.39,3.62-.44,4.99l3.71-1.73Z"/>
              <polygon class="st4" points="97.35 166.5 50.42 187.46 98.42 169.08 97.35 166.5"/>
              <polygon class="st4" points="102.51 171.46 101.44 168.87 54.51 189.84 102.51 171.46"/>
            </g>
          </g>
          <g id="SVGRepo_iconCarrier31" data-name="SVGRepo_iconCarrier">
            <g id="b193_chinese_bowl31" data-name="b193_chinese_bowl">
              <path class="st4" d="M120.91,185.32l-7.34,2.81c.07.55.17.77.29,1.3l8.24-3.73c-.22-.06-.98-.31-1.19-.37Z"/>
              <path class="st4" d="M162.29,180.44c0-1.9-2.02-3.61-5.43-4.94l-.84.32c3.54,1.26,5.71,2.88,5.71,4.62,0,3.89-10.83,7.18-23.65,7.18-3.85,0-7.51-.3-10.75-.81l-13.1,4.32c2.77,8.91,12.41,15.49,23.85,15.49,13.59,0,24.65-9.3,24.65-20.73,0-1.34-.15-3.77-.45-5.2,0-.09.01-.17.01-.25Z"/>
              <path class="st4" d="M117.15,183.89c-1.48-.93-2.73-2.38-2.73-3.46,0-3.89,10.83-7.19,23.66-7.19.5,0,.99,0,1.48.02l1.19-.53c-.88-.03-1.77-.04-2.67-.04-13.58,0-24.22,3.4-24.22,7.75,0,.11,0,.17.03.2-.24,1.13-.39,3.62-.44,4.99l3.71-1.73Z"/>
              <polygon class="st4" points="157.82 166.5 110.88 187.46 158.89 169.08 157.82 166.5"/>
              <polygon class="st4" points="162.98 171.46 161.91 168.87 114.97 189.84 162.98 171.46"/>
            </g>
          </g>
          <g id="SVGRepo_iconCarrier32" data-name="SVGRepo_iconCarrier">
            <g id="b193_chinese_bowl32" data-name="b193_chinese_bowl">
              <path class="st4" d="M181.38,185.32l-7.34,2.81c.07.55.17.77.29,1.3l8.24-3.73c-.22-.06-.98-.31-1.19-.37Z"/>
              <path class="st4" d="M222.76,180.44c0-1.9-2.02-3.61-5.43-4.94l-.84.32c3.54,1.26,5.72,2.88,5.72,4.62,0,3.89-10.83,7.18-23.65,7.18-3.84,0-7.51-.3-10.75-.81l-13.1,4.32c2.77,8.91,12.41,15.49,23.85,15.49,13.59,0,24.65-9.3,24.65-20.73,0-1.34-.15-3.77-.45-5.2,0-.09.01-.17.01-.25Z"/>
              <path class="st4" d="M177.62,183.89c-1.48-.93-2.73-2.38-2.73-3.46,0-3.89,10.83-7.19,23.66-7.19.5,0,.99,0,1.48.02l1.19-.53c-.88-.03-1.76-.04-2.67-.04-13.58,0-24.22,3.4-24.22,7.75,0,.11,0,.17.03.2-.24,1.13-.39,3.62-.44,4.99l3.71-1.73Z"/>
              <polygon class="st4" points="218.29 166.5 171.35 187.46 219.36 169.08 218.29 166.5"/>
              <polygon class="st4" points="223.45 171.46 222.38 168.87 175.44 189.84 223.45 171.46"/>
            </g>
          </g>
          <g id="SVGRepo_iconCarrier33" data-name="SVGRepo_iconCarrier">
            <g id="b193_chinese_bowl33" data-name="b193_chinese_bowl">
              <path class="st4" d="M241.85,185.32l-7.34,2.81c.07.55.17.77.29,1.3l8.24-3.73c-.22-.06-.98-.31-1.19-.37Z"/>
              <path class="st4" d="M283.22,180.44c0-1.9-2.02-3.61-5.43-4.94l-.84.32c3.54,1.26,5.72,2.88,5.72,4.62,0,3.89-10.83,7.18-23.65,7.18-3.85,0-7.51-.3-10.75-.81l-13.1,4.32c2.77,8.91,12.41,15.49,23.85,15.49,13.59,0,24.65-9.3,24.65-20.73,0-1.34-.15-3.77-.45-5.2,0-.09.01-.17.01-.25Z"/>
              <path class="st4" d="M238.09,183.89c-1.48-.93-2.73-2.38-2.73-3.46,0-3.89,10.83-7.19,23.66-7.19.5,0,.99,0,1.48.02l1.19-.53c-.88-.03-1.77-.04-2.67-.04-13.58,0-24.22,3.4-24.22,7.75,0,.11,0,.17.03.2-.24,1.13-.39,3.62-.44,4.99l3.71-1.73Z"/>
              <polygon class="st4" points="278.75 166.5 231.82 187.46 279.83 169.08 278.75 166.5"/>
              <polygon class="st4" points="283.92 171.46 282.84 168.87 235.91 189.84 283.92 171.46"/>
            </g>
          </g>
          <g id="SVGRepo_iconCarrier34" data-name="SVGRepo_iconCarrier">
            <g id="b193_chinese_bowl34" data-name="b193_chinese_bowl">
              <path class="st4" d="M302.32,185.32l-7.34,2.81c.07.55.17.77.29,1.3l8.24-3.73c-.22-.06-.98-.31-1.19-.37Z"/>
              <path class="st4" d="M343.69,180.44c0-1.9-2.02-3.61-5.43-4.94l-.84.32c3.54,1.26,5.72,2.88,5.72,4.62,0,3.89-10.83,7.18-23.65,7.18-3.85,0-7.51-.3-10.75-.81l-13.1,4.32c2.77,8.91,12.41,15.49,23.85,15.49,13.59,0,24.65-9.3,24.65-20.73,0-1.34-.15-3.77-.45-5.2,0-.09.01-.17.01-.25Z"/>
              <path class="st4" d="M298.56,183.89c-1.48-.93-2.73-2.38-2.73-3.46,0-3.89,10.83-7.19,23.66-7.19.5,0,.99,0,1.48.02l1.19-.53c-.88-.03-1.77-.04-2.67-.04-13.58,0-24.22,3.4-24.22,7.75,0,.11,0,.17.03.2-.24,1.13-.39,3.62-.44,4.99l3.71-1.73Z"/>
              <polygon class="st4" points="339.22 166.5 292.29 187.46 340.29 169.08 339.22 166.5"/>
              <polygon class="st4" points="344.39 171.46 343.31 168.87 296.38 189.84 344.39 171.46"/>
            </g>
          </g>
          <g id="SVGRepo_iconCarrier35" data-name="SVGRepo_iconCarrier">
            <g id="b193_chinese_bowl35" data-name="b193_chinese_bowl">
              <path class="st4" d="M362.78,185.32l-7.34,2.81c.07.55.17.77.29,1.3l8.24-3.73c-.22-.06-.98-.31-1.19-.37Z"/>
              <path class="st4" d="M404.16,180.44c0-1.9-2.02-3.61-5.43-4.94l-.84.32c3.54,1.26,5.72,2.88,5.72,4.62,0,3.89-10.83,7.18-23.65,7.18-3.85,0-7.51-.3-10.75-.81l-13.1,4.32c2.77,8.91,12.41,15.49,23.85,15.49,13.59,0,24.65-9.3,24.65-20.73,0-1.34-.15-3.77-.45-5.2,0-.09.01-.17.01-.25Z"/>
              <path class="st4" d="M359.02,183.89c-1.48-.93-2.73-2.38-2.73-3.46,0-3.89,10.83-7.19,23.66-7.19.5,0,.99,0,1.48.02l1.19-.53c-.88-.03-1.77-.04-2.67-.04-13.58,0-24.22,3.4-24.22,7.75,0,.11,0,.17.03.2-.24,1.13-.39,3.62-.44,4.99l3.71-1.73Z"/>
              <polygon class="st4" points="399.69 166.5 352.76 187.46 400.76 169.08 399.69 166.5"/>
              <polygon class="st4" points="404.85 171.46 403.78 168.87 356.85 189.84 404.85 171.46"/>
            </g>
          </g>
          <g id="SVGRepo_iconCarrier36" data-name="SVGRepo_iconCarrier">
            <g id="b193_chinese_bowl36" data-name="b193_chinese_bowl">
              <path class="st4" d="M-120.96,233.81l-7.34,2.81c.07.55.17.77.29,1.3l8.24-3.73c-.22-.06-.98-.31-1.19-.37Z"/>
              <path class="st4" d="M-79.59,228.93c0-1.9-2.02-3.61-5.43-4.94l-.84.32c3.54,1.26,5.72,2.88,5.72,4.62,0,3.89-10.83,7.18-23.65,7.18-3.84,0-7.51-.3-10.75-.81l-13.1,4.32c2.77,8.91,12.41,15.49,23.85,15.49,13.59,0,24.65-9.3,24.65-20.73,0-1.34-.15-3.77-.45-5.2,0-.09.01-.17.01-.25Z"/>
              <path class="st4" d="M-124.72,232.39c-1.48-.93-2.73-2.38-2.73-3.46,0-3.89,10.83-7.19,23.66-7.19.5,0,.99,0,1.48.02l1.19-.53c-.88-.03-1.77-.04-2.67-.04-13.58,0-24.22,3.4-24.22,7.75,0,.11,0,.17.03.2-.24,1.13-.39,3.62-.44,4.99l3.71-1.73Z"/>
              <polygon class="st4" points="-84.06 214.99 -130.99 235.96 -82.98 217.58 -84.06 214.99"/>
              <polygon class="st4" points="-78.89 219.95 -79.96 217.36 -126.9 238.34 -78.89 219.95"/>
            </g>
          </g>
          <g id="SVGRepo_iconCarrier37" data-name="SVGRepo_iconCarrier">
            <g id="b193_chinese_bowl37" data-name="b193_chinese_bowl">
              <path class="st4" d="M-60.49,233.81l-7.34,2.81c.07.55.17.77.29,1.3l8.24-3.73c-.22-.06-.98-.31-1.19-.37Z"/>
              <path class="st4" d="M-19.12,228.93c0-1.9-2.02-3.61-5.43-4.94l-.84.32c3.54,1.26,5.72,2.88,5.72,4.62,0,3.89-10.83,7.18-23.65,7.18-3.85,0-7.51-.3-10.75-.81l-13.1,4.32c2.77,8.91,12.41,15.49,23.85,15.49,13.59,0,24.65-9.3,24.65-20.73,0-1.34-.15-3.77-.45-5.2,0-.09.01-.17.01-.25Z"/>
              <path class="st4" d="M-64.25,232.39c-1.48-.93-2.73-2.38-2.73-3.46,0-3.89,10.83-7.19,23.66-7.19.5,0,.99,0,1.48.02l1.19-.53c-.88-.03-1.77-.04-2.67-.04-13.58,0-24.22,3.4-24.22,7.75,0,.11,0,.17.03.2-.24,1.13-.39,3.62-.44,4.99l3.71-1.73Z"/>
              <polygon class="st4" points="-23.59 214.99 -70.52 235.96 -22.52 217.58 -23.59 214.99"/>
              <polygon class="st4" points="-18.42 219.95 -19.5 217.36 -66.43 238.34 -18.42 219.95"/>
            </g>
          </g>
          <g id="SVGRepo_iconCarrier38" data-name="SVGRepo_iconCarrier">
            <g id="b193_chinese_bowl38" data-name="b193_chinese_bowl">
              <path class="st4" d="M-.03,233.81l-7.34,2.81c.07.55.17.77.29,1.3l8.24-3.73c-.22-.06-.98-.31-1.19-.37Z"/>
              <path class="st4" d="M41.35,228.93c0-1.9-2.02-3.61-5.43-4.94l-.84.32c3.54,1.26,5.72,2.88,5.72,4.62,0,3.89-10.83,7.18-23.65,7.18-3.84,0-7.51-.3-10.75-.81l-13.1,4.32c2.77,8.91,12.41,15.49,23.85,15.49,13.59,0,24.65-9.3,24.65-20.73,0-1.34-.15-3.77-.45-5.2,0-.09.01-.17.01-.25Z"/>
              <path class="st4" d="M-3.78,232.39c-1.48-.93-2.73-2.38-2.73-3.46,0-3.89,10.83-7.19,23.66-7.19.5,0,.99,0,1.48.02l1.19-.53c-.88-.03-1.77-.04-2.67-.04-13.58,0-24.22,3.4-24.22,7.75,0,.11,0,.17.03.2-.24,1.13-.39,3.62-.44,4.99l3.71-1.73Z"/>
              <polygon class="st4" points="36.88 214.99 -10.05 235.96 37.95 217.58 36.88 214.99"/>
              <polygon class="st4" points="42.05 219.95 40.97 217.36 -5.96 238.34 42.05 219.95"/>
            </g>
          </g>
          <g id="SVGRepo_iconCarrier39" data-name="SVGRepo_iconCarrier">
            <g id="b193_chinese_bowl39" data-name="b193_chinese_bowl">
              <path class="st4" d="M60.44,233.81l-7.34,2.81c.07.55.17.77.29,1.3l8.24-3.73c-.22-.06-.98-.31-1.19-.37Z"/>
              <path class="st4" d="M101.82,228.93c0-1.9-2.02-3.61-5.43-4.94l-.84.32c3.54,1.26,5.72,2.88,5.72,4.62,0,3.89-10.83,7.18-23.65,7.18-3.84,0-7.51-.3-10.75-.81l-13.1,4.32c2.77,8.91,12.41,15.49,23.85,15.49,13.59,0,24.65-9.3,24.65-20.73,0-1.34-.15-3.77-.45-5.2,0-.09.01-.17.01-.25Z"/>
              <path class="st4" d="M56.68,232.39c-1.48-.93-2.73-2.38-2.73-3.46,0-3.89,10.83-7.19,23.66-7.19.5,0,.99,0,1.48.02l1.19-.53c-.88-.03-1.77-.04-2.67-.04-13.58,0-24.22,3.4-24.22,7.75,0,.11,0,.17.03.2-.24,1.13-.39,3.62-.44,4.99l3.71-1.73Z"/>
              <polygon class="st4" points="97.35 214.99 50.42 235.96 98.42 217.58 97.35 214.99"/>
              <polygon class="st4" points="102.51 219.95 101.44 217.36 54.51 238.34 102.51 219.95"/>
            </g>
          </g>
          <g id="SVGRepo_iconCarrier40" data-name="SVGRepo_iconCarrier">
            <g id="b193_chinese_bowl40" data-name="b193_chinese_bowl">
              <path class="st4" d="M120.91,233.81l-7.34,2.81c.07.55.17.77.29,1.3l8.24-3.73c-.22-.06-.98-.31-1.19-.37Z"/>
              <path class="st4" d="M162.29,228.93c0-1.9-2.02-3.61-5.43-4.94l-.84.32c3.54,1.26,5.71,2.88,5.71,4.62,0,3.89-10.83,7.18-23.65,7.18-3.85,0-7.51-.3-10.75-.81l-13.1,4.32c2.77,8.91,12.41,15.49,23.85,15.49,13.59,0,24.65-9.3,24.65-20.73,0-1.34-.15-3.77-.45-5.2,0-.09.01-.17.01-.25Z"/>
              <path class="st4" d="M117.15,232.39c-1.48-.93-2.73-2.38-2.73-3.46,0-3.89,10.83-7.19,23.66-7.19.5,0,.99,0,1.48.02l1.19-.53c-.88-.03-1.77-.04-2.67-.04-13.58,0-24.22,3.4-24.22,7.75,0,.11,0,.17.03.2-.24,1.13-.39,3.62-.44,4.99l3.71-1.73Z"/>
              <polygon class="st4" points="157.82 214.99 110.88 235.96 158.89 217.58 157.82 214.99"/>
              <polygon class="st4" points="162.98 219.95 161.91 217.36 114.97 238.34 162.98 219.95"/>
            </g>
          </g>
          <g id="SVGRepo_iconCarrier41" data-name="SVGRepo_iconCarrier">
            <g id="b193_chinese_bowl41" data-name="b193_chinese_bowl">
              <path class="st4" d="M181.38,233.81l-7.34,2.81c.07.55.17.77.29,1.3l8.24-3.73c-.22-.06-.98-.31-1.19-.37Z"/>
              <path class="st4" d="M222.76,228.93c0-1.9-2.02-3.61-5.43-4.94l-.84.32c3.54,1.26,5.72,2.88,5.72,4.62,0,3.89-10.83,7.18-23.65,7.18-3.84,0-7.51-.3-10.75-.81l-13.1,4.32c2.77,8.91,12.41,15.49,23.85,15.49,13.59,0,24.65-9.3,24.65-20.73,0-1.34-.15-3.77-.45-5.2,0-.09.01-.17.01-.25Z"/>
              <path class="st4" d="M177.62,232.39c-1.48-.93-2.73-2.38-2.73-3.46,0-3.89,10.83-7.19,23.66-7.19.5,0,.99,0,1.48.02l1.19-.53c-.88-.03-1.76-.04-2.67-.04-13.58,0-24.22,3.4-24.22,7.75,0,.11,0,.17.03.2-.24,1.13-.39,3.62-.44,4.99l3.71-1.73Z"/>
              <polygon class="st4" points="218.29 214.99 171.35 235.96 219.36 217.58 218.29 214.99"/>
              <polygon class="st4" points="223.45 219.95 222.38 217.36 175.44 238.34 223.45 219.95"/>
            </g>
          </g>
          <g id="SVGRepo_iconCarrier42" data-name="SVGRepo_iconCarrier">
            <g id="b193_chinese_bowl42" data-name="b193_chinese_bowl">
              <path class="st4" d="M241.85,233.81l-7.34,2.81c.07.55.17.77.29,1.3l8.24-3.73c-.22-.06-.98-.31-1.19-.37Z"/>
              <path class="st4" d="M283.22,228.93c0-1.9-2.02-3.61-5.43-4.94l-.84.32c3.54,1.26,5.72,2.88,5.72,4.62,0,3.89-10.83,7.18-23.65,7.18-3.85,0-7.51-.3-10.75-.81l-13.1,4.32c2.77,8.91,12.41,15.49,23.85,15.49,13.59,0,24.65-9.3,24.65-20.73,0-1.34-.15-3.77-.45-5.2,0-.09.01-.17.01-.25Z"/>
              <path class="st4" d="M238.09,232.39c-1.48-.93-2.73-2.38-2.73-3.46,0-3.89,10.83-7.19,23.66-7.19.5,0,.99,0,1.48.02l1.19-.53c-.88-.03-1.77-.04-2.67-.04-13.58,0-24.22,3.4-24.22,7.75,0,.11,0,.17.03.2-.24,1.13-.39,3.62-.44,4.99l3.71-1.73Z"/>
              <polygon class="st4" points="278.75 214.99 231.82 235.96 279.83 217.58 278.75 214.99"/>
              <polygon class="st4" points="283.92 219.95 282.84 217.36 235.91 238.34 283.92 219.95"/>
            </g>
          </g>
          <g id="SVGRepo_iconCarrier43" data-name="SVGRepo_iconCarrier">
            <g id="b193_chinese_bowl43" data-name="b193_chinese_bowl">
              <path class="st4" d="M302.32,233.81l-7.34,2.81c.07.55.17.77.29,1.3l8.24-3.73c-.22-.06-.98-.31-1.19-.37Z"/>
              <path class="st4" d="M343.69,228.93c0-1.9-2.02-3.61-5.43-4.94l-.84.32c3.54,1.26,5.72,2.88,5.72,4.62,0,3.89-10.83,7.18-23.65,7.18-3.85,0-7.51-.3-10.75-.81l-13.1,4.32c2.77,8.91,12.41,15.49,23.85,15.49,13.59,0,24.65-9.3,24.65-20.73,0-1.34-.15-3.77-.45-5.2,0-.09.01-.17.01-.25Z"/>
              <path class="st4" d="M298.56,232.39c-1.48-.93-2.73-2.38-2.73-3.46,0-3.89,10.83-7.19,23.66-7.19.5,0,.99,0,1.48.02l1.19-.53c-.88-.03-1.77-.04-2.67-.04-13.58,0-24.22,3.4-24.22,7.75,0,.11,0,.17.03.2-.24,1.13-.39,3.62-.44,4.99l3.71-1.73Z"/>
              <polygon class="st4" points="339.22 214.99 292.29 235.96 340.29 217.58 339.22 214.99"/>
              <polygon class="st4" points="344.39 219.95 343.31 217.36 296.38 238.34 344.39 219.95"/>
            </g>
          </g>
          <g id="SVGRepo_iconCarrier44" data-name="SVGRepo_iconCarrier">
            <g id="b193_chinese_bowl44" data-name="b193_chinese_bowl">
              <path class="st4" d="M362.78,233.81l-7.34,2.81c.07.55.17.77.29,1.3l8.24-3.73c-.22-.06-.98-.31-1.19-.37Z"/>
              <path class="st4" d="M404.16,228.93c0-1.9-2.02-3.61-5.43-4.94l-.84.32c3.54,1.26,5.72,2.88,5.72,4.62,0,3.89-10.83,7.18-23.65,7.18-3.85,0-7.51-.3-10.75-.81l-13.1,4.32c2.77,8.91,12.41,15.49,23.85,15.49,13.59,0,24.65-9.3,24.65-20.73,0-1.34-.15-3.77-.45-5.2,0-.09.01-.17.01-.25Z"/>
              <path class="st4" d="M359.02,232.39c-1.48-.93-2.73-2.38-2.73-3.46,0-3.89,10.83-7.19,23.66-7.19.5,0,.99,0,1.48.02l1.19-.53c-.88-.03-1.77-.04-2.67-.04-13.58,0-24.22,3.4-24.22,7.75,0,.11,0,.17.03.2-.24,1.13-.39,3.62-.44,4.99l3.71-1.73Z"/>
              <polygon class="st4" points="399.69 214.99 352.76 235.96 400.76 217.58 399.69 214.99"/>
              <polygon class="st4" points="404.85 219.95 403.78 217.36 356.85 238.34 404.85 219.95"/>
            </g>
          </g>
        </g>
      </g>
    </g>
    <g>
      <path class="st2" d="M170.06,183.43h-60.14c-.39,0-.71-.3-.71-.68s.32-.68.71-.68h60.14c.39,0,.71.3.71.68s-.32.68-.71.68Z"/>
      <g>
        <g>
          <path class="st4" d="M185.59,140.9v25.12c0,1.4-1.18,2.53-2.63,2.53s-2.63-1.13-2.63-2.53v-25.12c.81.31,1.7.48,2.63.48s1.82-.17,2.63-.48Z"/>
          <path class="st2" d="M182.95,169.23c-1.84,0-3.34-1.44-3.34-3.21v-26.12l.97.37c.75.29,1.55.43,2.37.43s1.62-.15,2.37-.43l.97-.37v26.11c0,1.77-1.5,3.21-3.34,3.21ZM181.03,141.83v24.18c0,1.02.86,1.85,1.93,1.85s1.93-.83,1.93-1.85v-24.18c-1.25.3-2.6.3-3.85,0Z"/>
        </g>
        <g>
          <path class="st2" d="M92.08,173.27c-.56,0-1.01-.43-1.01-.97v-61.61c0-.54.45-.97,1.01-.97s1.01.43,1.01.97v61.61c0,.54-.45.97-1.01.97Z"/>
          <path class="st2" d="M98.75,173.27c-.56,0-1.01-.43-1.01-.97v-61.61c0-.54.45-.97,1.01-.97s1.01.43,1.01.97v61.61c0,.54-.45.97-1.01.97Z"/>
        </g>
        <g>
          <path class="st4" d="M102.57,141.49c0,3.8-3.21,6.88-7.16,6.88s-7.16-3.08-7.16-6.88,3.21-6.88,7.16-6.88,7.16,3.08,7.16,6.88Z"/>
          <path class="st2" d="M95.41,149.05c-4.34,0-7.87-3.39-7.87-7.55s3.53-7.55,7.87-7.55,7.87,3.39,7.87,7.55-3.53,7.55-7.87,7.55ZM95.41,135.3c-3.56,0-6.45,2.78-6.45,6.2s2.89,6.2,6.45,6.2,6.45-2.78,6.45-6.2-2.89-6.2-6.45-6.2Z"/>
        </g>
        <g>
          <path class="st4" d="M175.8,141.49c0,3.8,3.21,6.88,7.16,6.88s7.16-3.08,7.16-6.88-3.21-6.88-7.16-6.88-7.16,3.08-7.16,6.88Z"/>
          <path class="st2" d="M182.96,149.05c-4.34,0-7.87-3.39-7.87-7.55s3.53-7.55,7.87-7.55,7.87,3.39,7.87,7.55-3.53,7.55-7.87,7.55ZM182.96,135.3c-3.56,0-6.45,2.78-6.45,6.2s2.89,6.2,6.45,6.2,6.45-2.78,6.45-6.2-2.89-6.2-6.45-6.2Z"/>
        </g>
        <g>
          <path class="st4" d="M191.95,122.31c0,1.92-.52,3.74-1.42,5.31l-4.37,7.52c-.18-.09-.37-.17-.57-.25-.82-.31-1.71-.48-2.63-.48s-1.82.17-2.63.48c-.19.07-.38.15-.57.24l-4.3-7.39-.12-.2c-.88-1.56-1.38-3.35-1.38-5.24,0-4.94,3.4-9.13,8.07-10.51.6-.18,1.25-.18,1.85,0,4.67,1.39,8.07,5.57,8.07,10.51Z"/>
          <path class="st2" d="M186.44,136.04l-.61-.3c-.15-.08-.32-.15-.5-.22-.76-.29-1.56-.43-2.37-.43s-1.62.15-2.37.43c-.2.08-.36.14-.5.22l-.61.3-4.74-8.15c-.97-1.71-1.48-3.63-1.48-5.58,0-5.16,3.44-9.64,8.57-11.16.74-.22,1.53-.22,2.27,0,5.12,1.52,8.57,6,8.57,11.16,0,1.97-.52,3.93-1.51,5.64l-4.71,8.09ZM182.95,133.73c1,0,1.97.18,2.89.53,0,0,0,0,0,0l4.05-6.97c.87-1.51,1.33-3.24,1.33-4.98,0-4.56-3.04-8.52-7.57-9.86-.47-.14-.96-.14-1.43,0-4.53,1.34-7.57,5.31-7.57,9.86,0,1.72.45,3.42,1.3,4.92l.11.19,3.98,6.85s0,0,0,0c.92-.35,1.9-.53,2.9-.53Z"/>
        </g>
        <g>
          <path class="st4" d="M136.09,120.64c0,.68-.57,1.23-1.28,1.23s-1.28-.55-1.28-1.23.57-1.23,1.28-1.23,1.28.55,1.28,1.23ZM134.81,119.42c-.71,0-1.28.55-1.28,1.23s.57,1.23,1.28,1.23,1.28-.55,1.28-1.23-.57-1.23-1.28-1.23ZM145.21,119.42c-.71,0-1.28.55-1.28,1.23s.57,1.23,1.28,1.23,1.28-.55,1.28-1.23-.57-1.23-1.28-1.23ZM134.81,119.42c-.71,0-1.28.55-1.28,1.23s.57,1.23,1.28,1.23,1.28-.55,1.28-1.23-.57-1.23-1.28-1.23ZM146.49,120.64c0,.68-.57,1.23-1.28,1.23s-1.28-.55-1.28-1.23.57-1.23,1.28-1.23,1.28.55,1.28,1.23ZM166.35,137.82c.8-1.05,1.27-2.35,1.27-3.75,0-2.79-1.86-5.16-4.46-6.02-.68-.23-1.42-.35-2.18-.35-.14,0-.28,0-.43.01.03-.24.04-.49.04-.74,0-2.68-1.73-4.98-4.17-5.92,1.07.32,2.21.49,3.38.49,1.7,0,3.31-.36,4.76-.99.05-.02.1-.04.15-.07.15-.07.29-.15.43-.25.72-.5,1.18-1.31,1.18-2.22,0-.24-.03-.47-.09-.69-.01-.04-.03-.09-.04-.14-1.24-4.23-5.05-7.43-9.7-7.94.59.87.94,1.9.94,3.02,0,3.04-2.56,5.5-5.73,5.5-.14,0-.28,0-.42-.02-.04,0-.08,0-.13,0,0,0-.02,0-.02,0-.59-.05-1.15-.2-1.67-.41.45.87.79,1.81.99,2.79.18.38.34.77.48,1.18.36,1.07.56,2.21.56,3.4,0,.68-.06,1.35-.19,2h0c-.23,1.19-.65,2.3-1.24,3.32-.27.47-.58.92-.92,1.35-2.09,2.64-5.39,4.33-9.11,4.33s-7.04-1.71-9.13-4.35c-.34-.42-.64-.87-.91-1.34-.56-.98-.97-2.05-1.2-3.18-.14-.69-.21-1.4-.21-2.12,0-1.18.19-2.32.55-3.38.12-.36.26-.72.42-1.06h0c.2-1.04.54-2.02,1.02-2.93-.52.21-1.08.36-1.67.41,0,0-.02,0-.02,0-.04,0-.08,0-.13,0h0c-.14.01-.28.02-.42.02-3.16,0-5.73-2.46-5.73-5.5,0-1.12.35-2.15.94-3.02-.13.01-.25.03-.38.05-.26.04-.52.08-.77.14-.05,0-.1.02-.15.03-.07.02-.14.03-.21.05-.14.03-.27.07-.4.1-.15.04-.29.09-.43.13-.07.02-.14.04-.2.07-.67.23-1.32.52-1.93.87-.06.03-.12.07-.18.1-.24.14-.48.29-.71.45-.06.04-.11.08-.17.12-.06.04-.11.08-.17.12-.06.04-.11.08-.17.13-.31.24-.6.49-.88.76-.08.07-.15.15-.22.22-.06.06-.13.13-.19.19-.07.07-.14.15-.21.22-.02.02-.03.03-.04.05-.07.08-.15.16-.21.25-.03.03-.05.06-.07.09-.06.08-.13.16-.19.24-.07.1-.15.19-.22.29-.06.09-.12.17-.18.26-.02.02-.03.05-.05.07-.04.07-.09.13-.13.2-.04.05-.07.11-.1.16-.04.07-.08.14-.12.21-.03.04-.05.09-.08.14-.04.07-.08.14-.12.22-.03.05-.05.1-.08.15-.04.08-.08.16-.12.24-.02.03-.03.07-.05.1-.05.11-.11.23-.16.35-.05.12-.11.25-.15.38-.05.13-.09.26-.14.39-.04.12-.08.24-.12.37,0,0,0,.02,0,.03-.01.04-.03.08-.04.13-.06.22-.09.45-.09.69,0,.91.46,1.71,1.16,2.21.11.08.22.15.34.21.09.04.18.09.27.12,1.45.63,3.05.99,4.75.99,1.18,0,2.31-.17,3.38-.49-2.44.94-4.17,3.24-4.17,5.92,0,.25.01.5.04.74-.14,0-.28-.01-.42-.01-.77,0-1.5.12-2.18.35-2.6.87-4.46,3.23-4.46,6.02,0,1.4.47,2.69,1.27,3.75-2.93.66-5.11,3.19-5.11,6.21,0,2.33,1.3,4.37,3.25,5.48h56.41c1.94-1.11,3.24-3.15,3.24-5.48,0-3.02-2.18-5.54-5.11-6.21ZM134.81,119.42c-.71,0-1.28.55-1.28,1.23s.57,1.23,1.28,1.23,1.28-.55,1.28-1.23-.57-1.23-1.28-1.23ZM109.92,149.51c0,7.78,3.2,14.84,8.41,20.03,1.6,1.59,3.38,3.01,5.32,4.21.15.1.31.19.46.28,2.92,1.75,6.18,3.03,9.67,3.74.01,0,.02,0,.03,0,1.4.28,2.84.47,4.31.56h0c.25.01.5.03.75.03.13,0,.26,0,.39.01.1,0,.2,0,.3,0,.14,0,.29,0,.44,0,.39,0,.78,0,1.16-.02.25,0,.5-.02.75-.04,1.47-.09,2.9-.28,4.31-.56.01,0,.02,0,.03,0,3.48-.71,6.74-1.99,9.67-3.75.15-.09.3-.18.46-.28,1.93-1.21,3.71-2.62,5.31-4.21,5.2-5.19,8.39-12.24,8.39-20.01h-60.14ZM145.21,119.42c-.71,0-1.28.55-1.28,1.23s.57,1.23,1.28,1.23,1.28-.55,1.28-1.23-.57-1.23-1.28-1.23ZM134.81,119.42c-.71,0-1.28.55-1.28,1.23s.57,1.23,1.28,1.23,1.28-.55,1.28-1.23-.57-1.23-1.28-1.23ZM145.21,119.42c-.71,0-1.28.55-1.28,1.23s.57,1.23,1.28,1.23,1.28-.55,1.28-1.23-.57-1.23-1.28-1.23ZM145.21,119.42c-.71,0-1.28.55-1.28,1.23s.57,1.23,1.28,1.23,1.28-.55,1.28-1.23-.57-1.23-1.28-1.23ZM151.48,124.7c0,.68-.06,1.35-.19,2h0c-.23,1.19-.65,2.3-1.24,3.32-.27.47-.58.92-.92,1.35-2.09,2.64-5.39,4.33-9.11,4.33s-7.04-1.71-9.13-4.35c-.34-.42-.64-.87-.91-1.34-.56-.98-.97-2.05-1.2-3.18-.14-.69-.21-1.4-.21-2.12,0-1.18.19-2.32.55-3.38.12-.36.26-.72.42-1.06h0c.2-1.04.54-2.02,1.02-2.93,1.32-.54,2.39-1.55,2.98-2.81h0c.04-.09.08-.18.12-.28.13-.19.35-.32.6-.33.02,0,.04,0,.06,0,.13,0,.24.03.35.08.06.08.13.15.2.23.06.07.13.14.19.2.09.09.18.17.27.25.64.57,1.39,1.03,2.22,1.34h0c.77.29,1.6.44,2.46.44s1.7-.15,2.46-.44h0c.83-.3,1.59-.76,2.23-1.34.07-.07.15-.13.22-.2.08-.08.16-.16.23-.24.08-.08.16-.17.23-.26.09-.04.2-.06.3-.06.02,0,.04,0,.06,0h0c.25.02.46.14.6.33.04.1.08.19.12.28h0c.59,1.26,1.65,2.27,2.98,2.81.45.87.79,1.81.99,2.79.18.38.34.77.48,1.18.36,1.07.56,2.21.56,3.4ZM136.09,120.64c0-.68-.57-1.23-1.28-1.23s-1.28.55-1.28,1.23.57,1.23,1.28,1.23,1.28-.55,1.28-1.23ZM146.49,120.64c0-.68-.57-1.23-1.28-1.23s-1.28.55-1.28,1.23.57,1.23,1.28,1.23,1.28-.55,1.28-1.23ZM155.91,174.02c-2.92,1.76-6.18,3.04-9.67,3.75.66,2.01,2.08,3.7,3.92,4.77.03.02.07.04.11.06.19.1.4.15.63.15.2,0,.39-.04.57-.12.07-.04.14-.07.2-.11.03-.02.06-.03.08-.05.74-.44,1.41-.99,1.99-1.62h0c1.4-1.52,2.24-3.52,2.24-5.7,0-.38-.03-.76-.08-1.12ZM151.47,182.63c.07-.03.14-.07.2-.11-.06.04-.13.08-.2.11ZM124.11,174.04c-.05.36-.07.73-.07,1.1,0,2.18.85,4.18,2.24,5.7.58.63,1.25,1.18,1.99,1.62.03.02.05.03.08.04.07.04.14.08.21.12.17.08.36.12.56.12.22,0,.43-.05.61-.14.05-.02.09-.05.13-.08,1.84-1.07,3.25-2.75,3.92-4.76-3.48-.7-6.74-1.99-9.67-3.74ZM128.34,182.51c.07.05.14.09.21.12-.07-.04-.14-.08-.21-.12ZM156.49,109.25c-.47-.68-1.09-1.26-1.82-1.69-.43-1.87-1.85-3.39-3.7-4.01-.02,0-.03,0-.05-.01-.58-.19-1.2-.29-1.84-.29-1.32,0-2.53.43-3.5,1.14-.63-2.38-2.88-4.15-5.55-4.15s-4.94,1.78-5.56,4.17c-.97-.73-2.2-1.17-3.53-1.17-.65,0-1.27.1-1.84.29-.02,0-.03,0-.05.01-1.86.62-3.28,2.14-3.7,4.01-.73.43-1.35,1.01-1.82,1.69-.59.87-.94,1.9-.94,3.02,0,3.04,2.56,5.5,5.73,5.5.14,0,.28,0,.42-.02h0s.08,0,.13,0c0,0,.02,0,.02,0,.59-.05,1.15-.2,1.67-.41,1.32-.54,2.39-1.55,2.98-2.81h0c.04-.09.08-.18.12-.28.13-.19.35-.32.6-.33.02,0,.04,0,.06,0,.13,0,.24.03.35.08.06.08.13.15.2.23.06.07.13.14.19.2.09.09.18.17.27.25.64.57,1.39,1.03,2.22,1.34h0c.77.29,1.6.44,2.46.44s1.7-.15,2.46-.44h0c.83-.3,1.59-.76,2.23-1.34.07-.07.15-.13.22-.2.08-.08.16-.16.23-.24.08-.08.16-.17.23-.26.09-.04.2-.06.3-.06.02,0,.04,0,.06,0h0c.25.02.46.14.6.33.04.1.08.19.12.28h0c.59,1.26,1.65,2.27,2.98,2.81.52.21,1.08.36,1.67.41,0,0,.02,0,.02,0,.04,0,.08,0,.13,0,.14.01.28.02.42.02,3.16,0,5.73-2.46,5.73-5.5,0-1.12-.35-2.15-.94-3.02ZM128.87,117.74s-.08,0-.13,0h0c-.14.01-.28.02-.42.02-3.16,0-5.73-2.46-5.73-5.5,0-1.12.35-2.15.94-3.02-.13.01-.25.03-.38.05-.26.04-.52.08-.77.14-.05,0-.1.02-.15.03-.07.02-.14.03-.21.05-.14.03-.27.07-.4.1-.15.04-.29.09-.43.13-.07.02-.14.04-.2.07-.67.23-1.32.52-1.93.87-.06.03-.12.07-.18.1-.24.14-.48.29-.71.45-.06.04-.11.08-.17.12-.06.04-.11.08-.17.12-.06.04-.11.08-.17.13-.31.24-.6.49-.88.76-.08.07-.15.15-.22.22-.06.06-.13.13-.19.19-.07.07-.14.15-.21.22-.02.02-.03.03-.04.05-.07.08-.15.16-.21.25-.03.03-.05.06-.07.09-.06.08-.13.16-.19.24-.07.1-.15.19-.22.29-.06.09-.12.17-.18.26-.02.02-.03.05-.05.07-.04.07-.09.13-.13.2-.04.05-.07.11-.1.16-.04.07-.08.14-.12.21-.03.04-.05.09-.08.14-.04.07-.08.14-.12.22-.03.05-.05.1-.08.15-.04.08-.08.16-.12.24-.02.03-.03.07-.05.1-.05.11-.11.23-.16.35-.05.12-.11.25-.15.38-.05.13-.09.26-.14.39-.04.12-.08.24-.12.37,0,0,0,.02,0,.03-.01.04-.03.08-.04.13-.06.22-.09.45-.09.69,0,.91.46,1.71,1.16,2.21,1.61.83,3.44,1.29,5.39,1.29,3.45,0,6.54-1.46,8.64-3.78,0,0-.02,0-.02,0ZM166.23,117.32s-.03-.09-.04-.14c-1.24-4.23-5.05-7.43-9.7-7.94.59.87.94,1.9.94,3.02,0,3.04-2.56,5.5-5.73,5.5-.14,0-.28,0-.42-.02-.04,0-.08,0-.13,0,0,0-.02,0-.02,0,2.1,2.32,5.19,3.78,8.64,3.78,1.94,0,3.77-.46,5.37-1.28.72-.5,1.18-1.31,1.18-2.22,0-.24-.03-.47-.09-.69Z"/>
          <path class="st2" d="M150.9,183.43c-.34,0-.67-.08-.97-.24-.05-.03-.1-.06-.16-.09-1.82-1.06-3.23-2.66-4-4.55-1.25.23-2.54.38-3.83.46-.25.02-.51.03-.77.04-.37.01-.76.02-1.19.02-.15,0-.3,0-.45,0-.11,0-.22,0-.32,0-.07,0-.16,0-.25,0h-.12c-.25-.01-.5-.02-.75-.04h-.03c-1.3-.08-2.58-.23-3.83-.46-.78,1.89-2.18,3.49-4,4.55-.06.04-.12.07-.18.1-.29.15-.6.22-.94.22-.3,0-.6-.06-.86-.18-.1-.04-.2-.1-.29-.16-.02,0-.03-.02-.05-.03h-.02c-.8-.49-1.52-1.08-2.15-1.76-1.56-1.7-2.42-3.88-2.42-6.15,0-.26.01-.51.03-.76-.03-.02-.06-.04-.09-.06-1.97-1.22-3.8-2.67-5.44-4.31-5.55-5.54-8.61-12.82-8.61-20.5v-.68h.6c-1.24-1.29-1.97-3.01-1.97-4.8,0-2.97,1.9-5.57,4.73-6.6-.58-1.02-.88-2.17-.88-3.36,0-3,1.98-5.68,4.93-6.66.67-.23,1.37-.35,2.09-.38,0-.02,0-.04,0-.06,0-1.81.7-3.49,1.92-4.76-.14,0-.28,0-.42,0-1.75,0-3.45-.35-5.04-1.05-.1-.04-.21-.09-.31-.14-.13-.07-.26-.15-.38-.23l-.05-.03c-.9-.64-1.44-1.66-1.44-2.74,0,0,0-.01,0-.02,0-.29.04-.58.11-.86.01-.05.03-.1.04-.14,0-.02.01-.04.02-.06.04-.12.07-.25.12-.37.04-.13.09-.27.15-.41.05-.14.11-.28.17-.41.04-.11.1-.23.16-.35.02-.05.04-.09.06-.13.04-.08.08-.17.12-.25l.02-.04s.05-.09.07-.14c.03-.07.07-.14.11-.21.03-.05.06-.11.09-.16.03-.06.07-.12.1-.18l.02-.03c.04-.06.08-.13.12-.19.04-.07.09-.14.13-.21.02-.02.04-.06.06-.09.06-.09.12-.18.18-.26.07-.1.15-.21.23-.31.06-.08.12-.16.19-.24.03-.04.06-.07.09-.11.07-.08.14-.17.22-.25.02-.02.04-.05.06-.07.07-.08.14-.15.21-.23.06-.06.12-.13.19-.2.08-.08.16-.16.24-.24.29-.28.61-.55.94-.81.06-.05.12-.09.18-.14.05-.03.1-.08.16-.12.07-.05.13-.09.19-.14.23-.16.47-.32.75-.48.06-.04.13-.08.2-.12.64-.36,1.33-.67,2.04-.92h.04c.06-.04.12-.06.18-.07.14-.05.29-.09.45-.14.14-.04.28-.08.42-.11.07-.02.15-.04.23-.05.04-.01.1-.02.16-.03.27-.06.54-.11.81-.14.03,0,.06,0,.08-.01.44-.57.98-1.08,1.6-1.48.55-1.95,2.09-3.55,4.09-4.23.02,0,.05-.02.07-.02.66-.21,1.34-.32,2.05-.32,1.12,0,2.19.27,3.15.79.99-2.27,3.31-3.79,5.94-3.79s4.94,1.51,5.93,3.78c.95-.51,2.01-.77,3.12-.77.7,0,1.39.11,2.05.32.03,0,.06.02.09.03,1.98.67,3.53,2.27,4.07,4.22.62.4,1.16.9,1.6,1.48,4.77.65,8.67,3.91,9.98,8.39.01.05.03.1.04.15h0c.07.28.11.55.11.83,0,.01,0,.02,0,.03h0c0,1.1-.55,2.14-1.47,2.78-.16.12-.34.22-.53.31-.05.02-.11.05-.17.08-1.58.69-3.28,1.05-5.04,1.05-.14,0-.28,0-.42,0,1.21,1.27,1.91,2.95,1.91,4.76,0,.02,0,.04,0,.06.71.03,1.42.16,2.09.38,2.95.98,4.94,3.66,4.94,6.66,0,1.19-.3,2.33-.88,3.36,2.82,1.03,4.72,3.62,4.72,6.6,0,1.8-.72,3.51-1.97,4.8h.57v.68c0,7.68-3.05,14.95-8.59,20.48-1.64,1.63-3.47,3.08-5.43,4.31-.03.02-.06.04-.09.06.02.26.03.52.03.77,0,2.27-.86,4.45-2.42,6.15l-.02.02c-.62.67-1.33,1.25-2.13,1.73-.02.01-.04.03-.07.04-.09.06-.18.11-.29.16-.27.12-.56.19-.87.19ZM147.18,178.26c.68,1.53,1.84,2.82,3.34,3.69l.04.03s.02.01.03.02c.18.09.38.1.54.03.05-.03.09-.05.13-.08l.04-.02s.04-.02.05-.03c.69-.42,1.31-.92,1.84-1.5l.02-.02c1.32-1.44,2.04-3.29,2.05-5.21-2.53,1.4-5.25,2.43-8.09,3.09ZM128.88,182.02c.16.07.37.06.52-.02.02-.01.04-.03.07-.04l.03-.02c1.5-.86,2.66-2.16,3.34-3.68-2.84-.65-5.55-1.68-8.09-3.08.01,1.92.74,3.76,2.06,5.2.54.58,1.15,1.09,1.83,1.49l.09.05s.1.06.15.08ZM138.15,177.66h0c.24.01.49.03.73.03h.13c.08,0,.16.01.24.01.11,0,.2,0,.29,0h.02c.14,0,.28,0,.42,0,.41,0,.78,0,1.13-.02.24,0,.49-.02.73-.04,1.4-.08,2.8-.26,4.16-.54l.08-.02c3.35-.68,6.53-1.91,9.44-3.66l.25-.15c.06-.04.13-.08.19-.12,1.88-1.17,3.62-2.56,5.19-4.12,5.12-5.11,8.01-11.79,8.18-18.86h-58.7c.17,7.08,3.07,13.76,8.2,18.88,1.57,1.56,3.32,2.95,5.2,4.11.09.05.17.11.26.16l.19.11s.03.02.04.03c2.82,1.68,5.87,2.88,9.1,3.56.1.02.2.04.3.06h.02c1.37.28,2.78.46,4.2.55ZM112.01,148.83h56.01c1.69-1.04,2.74-2.87,2.74-4.8,0-2.66-1.88-4.94-4.56-5.55l-1.04-.23.63-.83c.74-.98,1.13-2.13,1.13-3.35,0-2.42-1.6-4.59-3.99-5.38-.62-.21-1.28-.32-1.95-.32-.14,0-.26,0-.38.01l-.85.06.1-.82c.03-.21.04-.43.04-.66,0-2.34-1.46-4.42-3.72-5.29h0c-2.05-.62-3.92-1.75-5.39-3.3-.03,0-.07,0-.1-.01.18.5.33,1.02.44,1.54.18.38.34.78.47,1.18.39,1.16.59,2.37.59,3.61,0,.69-.06,1.39-.19,2.06h0s-.01.06-.01.06c-.24,1.24-.68,2.43-1.31,3.52-.29.5-.62.98-.97,1.43-2.32,2.92-5.85,4.6-9.67,4.6s-7.37-1.68-9.69-4.62c-.35-.45-.68-.93-.96-1.42-.61-1.05-1.04-2.19-1.28-3.38-.15-.73-.23-1.49-.23-2.26,0-1.23.2-2.44.59-3.59.12-.36.26-.72.42-1.06.11-.57.27-1.13.47-1.68-.03,0-.07,0-.1.01-1.47,1.55-3.34,2.68-5.39,3.29h0c-2.26.88-3.73,2.96-3.73,5.3,0,.23.01.45.04.66l.1.82-.86-.06c-.11,0-.24-.01-.37-.01-.67,0-1.33.11-1.95.32-2.38.79-3.98,2.96-3.98,5.38,0,1.21.39,2.37,1.13,3.35l.63.83-1.04.23c-2.69.61-4.56,2.89-4.56,5.55,0,1.94,1.05,3.76,2.74,4.8ZM129.28,124.7c0,.68.07,1.35.2,1.99.21,1.05.59,2.05,1.13,2.98.25.44.54.86.85,1.26,2.05,2.6,5.18,4.09,8.57,4.09s6.5-1.48,8.55-4.07c.32-.39.6-.82.86-1.26.55-.96.94-1.99,1.15-3.06v-.05c.13-.61.19-1.24.19-1.87,0-1.09-.18-2.17-.52-3.19-.13-.38-.28-.75-.45-1.11l-.04-.07-.02-.08c-.17-.83-.45-1.64-.82-2.41-1.34-.62-2.42-1.65-3.05-2.95,0-.02-.02-.04-.03-.05,0-.01-.01-.03-.02-.04l-.06-.14s-.01-.03-.02-.04c-.02.02-.04.05-.07.07-.07.08-.15.16-.24.25-.08.08-.16.15-.24.22-.73.65-1.55,1.15-2.46,1.48l-.13.04c-.82.29-1.69.44-2.59.44s-1.77-.15-2.59-.44h0l-.13-.05c-.91-.34-1.74-.83-2.45-1.48-.1-.09-.2-.18-.3-.28-.07-.07-.15-.15-.22-.23-.02-.02-.04-.04-.06-.06,0,0,0,0,0,0,0,.02-.02.04-.03.06h0s-.02.05-.03.07l-.03.06c-.63,1.35-1.72,2.42-3.1,3.05-.39.8-.68,1.65-.85,2.53l-.04.21-.06.06c-.13.28-.24.58-.34.88-.35,1.02-.52,2.09-.52,3.18ZM152.78,118.36c1.94,1.59,4.41,2.48,6.99,2.48,1.74,0,3.47-.41,4.99-1.18.53-.38.84-.98.85-1.61,0-.01,0-.03,0-.04,0-.17-.02-.35-.07-.52,0-.04-.02-.07-.03-.11,0,0,0,0,0,0-1.06-3.63-4.04-6.35-7.77-7.23.26.67.39,1.39.39,2.12,0,3.05-2.32,5.6-5.35,6.09ZM115.24,119.65c1.53.78,3.26,1.19,5.01,1.19,2.58,0,5.05-.89,6.99-2.48-3.04-.49-5.35-3.04-5.35-6.09,0-.73.13-1.44.39-2.11-.03,0-.05.01-.08.02-.13.03-.25.06-.38.1-.14.04-.27.08-.4.12-.06.02-.11.03-.16.05h-.04c-.62.23-1.23.5-1.81.83-.06.03-.11.06-.16.09-.25.15-.47.29-.67.43-.05.04-.1.07-.16.11-.06.05-.11.08-.16.12-.06.04-.11.08-.15.12-.29.23-.57.47-.83.72-.07.07-.14.13-.2.19l-.03.03c-.05.05-.11.11-.16.16-.07.08-.14.14-.2.21l-.05.06c-.07.07-.13.15-.19.22l-.02.02s-.03.04-.04.05v.02c-.07.07-.13.14-.18.21-.07.09-.14.18-.2.27-.06.09-.12.17-.18.25l-.04.06c-.05.07-.08.12-.12.18l-.03.04s-.05.07-.06.1l-.04.06s-.06.09-.08.14l-.02.03s-.04.06-.05.09v.02c-.05.07-.08.13-.12.2-.03.05-.04.08-.06.11l-.02.04c-.03.07-.07.15-.11.22l-.02.04s-.01.02-.01.03l-.02.04c-.05.1-.1.21-.14.32-.06.13-.1.25-.15.36-.04.12-.09.24-.13.36-.04.12-.08.23-.11.35l-.02.07s-.02.05-.02.08c-.04.16-.06.33-.06.51,0,.65.3,1.24.83,1.64ZM151.05,118.41s0,0,0,0h0ZM151.19,117.06h.06s.02,0,.02,0h.06c.12.01.24.02.36.02,2.77,0,5.02-2.16,5.02-4.82,0-.94-.28-1.86-.82-2.65h0c-.41-.6-.96-1.11-1.59-1.48l-.26-.15-.06-.28c-.37-1.62-1.61-2.96-3.24-3.51h-.05c-.52-.18-1.06-.27-1.61-.27-1.12,0-2.18.35-3.07,1l-.85.63-.26-1c-.56-2.14-2.57-3.64-4.87-3.64s-4.32,1.5-4.87,3.65l-.26,1.02-.86-.65c-.89-.67-1.96-1.02-3.09-1.02-.56,0-1.1.09-1.61.26h-.05c-1.64.57-2.87,1.91-3.24,3.53l-.06.28-.26.15c-.64.37-1.19.89-1.6,1.48-.51.75-.8,1.62-.82,2.52,0,.04,0,.08,0,.13,0,2.66,2.25,4.82,5.02,4.82.12,0,.24,0,.36-.01h.06s.02,0,.03,0h.08c.49-.06.98-.18,1.44-.37.02,0,.05-.02.07-.03,1.09-.47,1.96-1.28,2.48-2.31h0s.07-.15.07-.15c.03-.06.06-.13.09-.22l.03-.08.05-.07c.26-.37.67-.59,1.12-.63.04,0,.08,0,.12,0,.23,0,.46.05.67.15l.14.07.1.12c.06.07.11.13.18.2.06.07.12.13.17.18.08.08.16.16.24.23.56.5,1.19.89,1.89,1.16l.11.04c.7.26,1.44.39,2.21.39s1.51-.13,2.21-.39l.13-.05c.69-.27,1.32-.66,1.88-1.16.06-.06.13-.12.19-.18.07-.07.14-.14.21-.21.07-.07.13-.14.2-.23l.11-.14.16-.07c.18-.08.38-.12.59-.12.03,0,.06,0,.08,0h0s.01,0,.02,0h0c.45.03.86.26,1.12.62l.05.07.03.08c.03.08.07.16.1.23l.06.14c.53,1.05,1.43,1.87,2.55,2.33.45.18.92.3,1.4.35.01,0,.02,0,.03,0h.03ZM151.22,117.06h0s0,0,0,0ZM129.3,104.19h-.01s0,0,.01,0ZM145.21,122.55c-1.1,0-1.99-.86-1.99-1.91s.89-1.91,1.99-1.91,1.98.85,1.98,1.91-.89,1.91-1.98,1.91ZM144.64,120.64c0,.3.26.55.57.55s.57-.25.57-.55-.26-.55-.57-.55-.57.25-.57.55ZM134.81,122.55c-1.1,0-1.99-.86-1.99-1.91s.89-1.91,1.99-1.91,1.99.85,1.99,1.91-.89,1.91-1.99,1.91ZM134.23,120.64c0,.3.26.55.57.55s.57-.25.57-.55-.26-.55-.57-.55-.57.25-.57.55Z"/>
        </g>
        <path d="M144.65,125.29c-.34-.19-.77-.09-.97.23-.07.12-.16.24-.26.35-.76.91-2.07,1.55-3.29,1.55-1.31,0-2.53-.59-3.3-1.55-.09-.11-.18-.23-.25-.35-.2-.32-.63-.43-.97-.23-.34.19-.44.61-.24.93.86,1.39,2.38,2.31,4.05,2.52v1.59c0,.38.32.68.71.68s.71-.3.71-.68v-1.59c1.64-.22,3.23-1.19,4.05-2.51.2-.32.09-.74-.24-.93Z"/>
      </g>
    </g>
  </g>
</svg>